<?xml version="1.0" encoding="UTF-8" standalone="no"?><!DOCTYPE svg PUBLIC "-//W3C//DTD SVG 1.1//EN" "http://www.w3.org/Graphics/SVG/1.1/DTD/svg11.dtd"><svg width="3507px" height="1974px" version="1.1" xmlns="http://www.w3.org/2000/svg" xmlns:xlink="http://www.w3.org/1999/xlink" xml:space="preserve" xmlns:serif="http://www.serif.com/" style="fill-rule:evenodd;clip-rule:evenodd;stroke-linejoin:round;stroke-miterlimit:2;"><g id="路线"><path d="M677.903,248.899l-677.903,0l0,-248.899l3507.87,0l0,1973.93l-249.673,0l0,-456.846l-1685.48,-0l0,-773.225l-859.172,-0l-0,826.698l-216.051,0l0,-29.069l180.404,-0l-0,-1292.59Zm2580.3,0l-879.393,0l-0,189.09l530.652,-0l0,1049.53l348.741,-0l0,-1238.62Zm-909.774,0l-124.056,0l0,728.639l-32.912,0l-0,-509.983l-589.47,-0l0,1019.97l1271.82,-0l0,-1019.97l-495.005,-0l-0,509.983l-30.381,0l-0,-728.639Zm-156.968,0l-1477.91,0l-0,465.398l859.172,-0l0,-276.308l618.737,-0l-0,-189.09Z" style="fill:#d1d1d1;"/><g id="建筑"><path id="司法鉴定" d="M766.74,1011.3l308.664,-178.676l67.732,96.326l75.737,-38.62l36.153,52.33l-86.574,44.307l50.421,77.647l-383.847,217.263l-334.646,0l-383.847,-217.263l50.421,-77.647l-86.574,-44.307l36.153,-52.33l75.737,38.62l67.732,-96.326l308.664,178.676l198.074,-0Z" style="fill:#d1d1d1;"/><g transform="matrix(1,0,0,1,-78.4062,-183.585)"><g transform="matrix(130.764,103.337,-103.337,130.764,223.017,1181.71)"><path d="M0.648,-0.395c-0.002,0.037 -0.003,0.076 -0.003,0.118l-0,0.086c-0,0.041 0.001,0.084 0.003,0.129l-0.086,-0.001l0,-0.05l-0.32,-0l0,0.105l-0.086,0c0.005,-0.047 0.008,-0.088 0.008,-0.125l0,-0.144c0,-0.034 -0.003,-0.073 -0.008,-0.118l0.492,0Zm0.25,-0.371c-0.002,0.058 -0.003,0.108 -0.003,0.153l-0,0.609c-0.003,0.034 -0.021,0.057 -0.053,0.068c-0.033,0.012 -0.08,0.022 -0.143,0.03c0,-0.024 -0.013,-0.055 -0.039,-0.094c0.068,-0 0.11,-0.003 0.125,-0.008c0.016,-0.005 0.024,-0.025 0.024,-0.058l-0,-0.633l-0.539,-0c-0.047,-0 -0.098,0.001 -0.153,0.004l0,-0.075c0.055,0.003 0.104,0.004 0.149,0.004l0.632,0Zm-0.335,0.59l-0,-0.156l-0.321,-0l0,0.156l0.321,0Zm0.015,-0.402c0.034,-0 0.08,-0.001 0.137,-0.004l-0,0.078c-0.055,-0.003 -0.099,-0.004 -0.133,-0.004l-0.363,0c-0.05,0 -0.101,0.001 -0.153,0.004l0,-0.078c0.052,0.003 0.103,0.004 0.153,0.004l0.359,-0Z" style="fill:#f00;fill-rule:nonzero;"/></g><g transform="matrix(162.031,39.037,-39.037,162.031,413.888,1337.55)"><path d="M0.949,0.047c-0.023,0.013 -0.047,0.03 -0.07,0.051c-0.018,-0.034 -0.034,-0.06 -0.047,-0.078c-0.083,0.005 -0.174,0.012 -0.271,0.021c-0.098,0.009 -0.164,0.019 -0.198,0.029c-0.008,-0.031 -0.018,-0.058 -0.031,-0.082c0.034,-0.01 0.07,-0.044 0.109,-0.101c0.039,-0.058 0.075,-0.129 0.106,-0.215l-0.109,-0c-0.047,-0 -0.092,0.001 -0.133,0.004l-0,-0.071c0.041,0.003 0.087,0.004 0.136,0.004l0.141,0l0,-0.171l-0.09,-0c-0.049,-0 -0.092,0.001 -0.129,0.003l0,-0.07c0.042,0.003 0.084,0.004 0.125,0.004l0.094,0c0,-0.073 -0.001,-0.133 -0.004,-0.18l0.086,0c-0.003,0.039 -0.004,0.099 -0.004,0.18l0.117,0c0.039,0 0.08,-0.001 0.121,-0.004l0,0.07c-0.041,-0.002 -0.079,-0.004 -0.113,-0.004l-0.125,0l0,0.172l0.141,0c0.047,0 0.094,-0.001 0.14,-0.004l0,0.071c-0.046,-0.003 -0.093,-0.004 -0.14,-0.004l-0.199,-0l0.039,0.023c-0.016,0.019 -0.041,0.058 -0.075,0.117c-0.033,0.06 -0.071,0.118 -0.113,0.172c0.115,-0.005 0.228,-0.011 0.34,-0.019c-0.031,-0.047 -0.064,-0.089 -0.098,-0.125c0.021,-0.016 0.041,-0.033 0.059,-0.051c0.047,0.057 0.112,0.143 0.195,0.258Zm-0.902,-0.008c0.036,-0.036 0.073,-0.082 0.111,-0.137c0.038,-0.054 0.075,-0.112 0.112,-0.172c0.013,0.024 0.031,0.042 0.054,0.055c-0.023,0.031 -0.053,0.078 -0.09,0.139c-0.036,0.061 -0.07,0.119 -0.101,0.174c-0.021,-0.021 -0.05,-0.041 -0.086,-0.059Zm0.058,-0.574c0.055,0.034 0.114,0.074 0.176,0.121c-0.023,0.016 -0.044,0.036 -0.062,0.062c-0.05,-0.044 -0.104,-0.086 -0.164,-0.125c0.018,-0.015 0.035,-0.035 0.05,-0.058Zm0.059,-0.231c0.052,0.034 0.107,0.075 0.164,0.121c-0.021,0.016 -0.04,0.037 -0.058,0.063c-0.05,-0.047 -0.102,-0.089 -0.157,-0.125c0.019,-0.018 0.035,-0.038 0.051,-0.059Z" style="fill:#f00;fill-rule:nonzero;"/></g><g transform="matrix(166.648,-2.46621,2.46621,166.648,652.463,1379.57)"><path d="M0.516,-0.461c0.057,0.044 0.104,0.076 0.142,0.094c0.038,0.018 0.08,0.033 0.125,0.045c0.046,0.011 0.101,0.021 0.166,0.029c-0.015,0.026 -0.03,0.053 -0.043,0.082c-0.062,-0.016 -0.13,-0.036 -0.203,-0.062l0,0.046c-0.034,-0.002 -0.07,-0.003 -0.109,-0.003l-0.071,-0l0,0.07l0.153,-0c0.041,-0 0.083,-0.001 0.125,-0.004l-0,0.07c-0.042,-0.002 -0.082,-0.004 -0.121,-0.004l-0.157,0l0,0.114l0.106,-0c0.018,-0.045 0.031,-0.077 0.039,-0.098c0.026,0.008 0.052,0.017 0.078,0.027c-0.016,0.021 -0.03,0.045 -0.043,0.071l0.086,-0c0.042,-0 0.087,-0.002 0.137,-0.004l-0,0.066c-0.047,-0.002 -0.093,-0.004 -0.137,-0.004l-0.59,0c-0.039,0 -0.083,0.002 -0.133,0.004l0,-0.066c0.047,0.002 0.092,0.004 0.133,0.004l0.074,-0c-0.01,-0.021 -0.02,-0.043 -0.031,-0.067c0.024,-0.013 0.047,-0.022 0.07,-0.027c0.019,0.044 0.032,0.075 0.04,0.094l0.105,-0l0,-0.114l-0.125,0c-0.039,0 -0.085,0.002 -0.137,0.004l0,-0.07c0.05,0.003 0.094,0.004 0.133,0.004l0.129,-0l0,-0.07l-0.066,-0c-0.037,-0 -0.075,0.001 -0.114,0.003l0,-0.046c-0.07,0.026 -0.136,0.048 -0.199,0.066c-0.01,-0.026 -0.026,-0.052 -0.047,-0.078c0.084,-0.008 0.154,-0.026 0.211,-0.053c0.057,-0.027 0.102,-0.054 0.133,-0.08c0.008,-0.005 0.014,-0.012 0.02,-0.02l-0.067,0.001c0.003,-0.05 0.004,-0.09 0.004,-0.122l0,-0.117c0,-0.044 -0.001,-0.086 -0.004,-0.125l0.082,0c-0.002,0.037 -0.004,0.078 -0.004,0.125l0,0.227c0.021,-0.021 0.038,-0.043 0.051,-0.067c0.026,0.013 0.053,0.024 0.082,0.032l-0.023,0.023Zm0.148,-0.324c-0.018,0.034 -0.036,0.066 -0.055,0.097l0.192,0c0.028,0 0.064,-0.001 0.105,-0.003l0,0.066c-0.041,-0.003 -0.077,-0.004 -0.105,-0.004l-0.215,0c-0.021,0.042 -0.039,0.08 -0.055,0.113c-0.023,-0.013 -0.047,-0.024 -0.07,-0.035c0.023,-0.031 0.044,-0.069 0.06,-0.113c0.017,-0.044 0.035,-0.095 0.053,-0.152c0.024,0.01 0.054,0.02 0.09,0.031Zm-0.449,0.019c-0.003,0.032 -0.004,0.065 -0.004,0.102l-0,0.109c-0,0.037 0.001,0.073 0.004,0.11l-0.074,-0c0.002,-0.037 0.004,-0.073 0.004,-0.11l-0,-0.109c-0,-0.031 -0.002,-0.065 -0.004,-0.102l0.074,0Zm0.445,0.477c-0.044,-0.021 -0.079,-0.039 -0.103,-0.055c-0.025,-0.015 -0.053,-0.04 -0.084,-0.074c-0.032,0.026 -0.055,0.048 -0.071,0.064c-0.015,0.017 -0.047,0.039 -0.093,0.065l0.351,-0Zm0.164,-0.149c-0.023,0.016 -0.044,0.032 -0.062,0.047c-0.021,-0.023 -0.068,-0.074 -0.141,-0.152c0.016,-0.016 0.033,-0.031 0.051,-0.047l0.152,0.152Z" style="fill:#f00;fill-rule:nonzero;"/></g><g transform="matrix(156.399,-57.5932,57.5932,156.399,896.865,1374.83)"><path d="M0.656,-0.488c0.05,-0 0.101,-0.002 0.153,-0.004l-0,0.074c-0.047,-0.003 -0.103,-0.004 -0.168,-0.004l-0.086,0l-0,0.156l0.164,0c0.028,0 0.069,-0.001 0.121,-0.004l-0,0.075c-0.052,-0.003 -0.094,-0.004 -0.125,-0.004l-0.16,-0l-0,0.183c0.109,0.013 0.239,0.012 0.39,-0.004c-0.021,0.034 -0.034,0.066 -0.039,0.094c-0.104,0 -0.19,-0.001 -0.258,-0.004c-0.067,-0.002 -0.125,-0.01 -0.171,-0.023c-0.047,-0.013 -0.089,-0.033 -0.125,-0.059c-0.037,-0.026 -0.071,-0.057 -0.102,-0.093c-0.042,0.075 -0.09,0.14 -0.145,0.195c-0.023,-0.024 -0.049,-0.041 -0.078,-0.051c0.073,-0.057 0.127,-0.125 0.161,-0.203c0.033,-0.078 0.052,-0.138 0.054,-0.18c0.026,0.016 0.057,0.028 0.094,0.035c-0.008,0.011 -0.016,0.027 -0.025,0.049c-0.01,0.022 -0.021,0.05 -0.034,0.084c0.019,0.024 0.046,0.05 0.082,0.08c0.037,0.03 0.076,0.052 0.118,0.065l-0,-0.391l-0.125,0c-0.045,0 -0.089,0.001 -0.133,0.004l-0,-0.074c0.044,0.002 0.096,0.004 0.156,0.004l0.281,-0Zm0.242,-0.18c-0.002,0.036 -0.003,0.064 -0.003,0.082c-0,0.018 0.001,0.043 0.003,0.074l-0.082,0l0,-0.093l-0.625,-0l0,0.093l-0.082,0c0.003,-0.021 0.004,-0.044 0.004,-0.07c0,-0.026 -0.001,-0.055 -0.004,-0.086l0.789,0Zm-0.484,-0.121c0.023,-0.008 0.047,-0.021 0.07,-0.039c0.029,0.034 0.055,0.073 0.078,0.117c-0.036,0.016 -0.062,0.029 -0.078,0.039c-0.005,-0.023 -0.028,-0.062 -0.07,-0.117Z" style="fill:#f00;fill-rule:nonzero;"/></g><g transform="matrix(138.378,-92.8944,92.8944,138.378,1117.13,1274.46)"><path d="M0.535,-0.254c0.016,-0.034 0.027,-0.066 0.035,-0.098c0.026,0.013 0.052,0.025 0.078,0.036c-0.01,0.013 -0.023,0.033 -0.039,0.062l0.211,0c0.047,0 0.095,-0.001 0.145,-0.004l-0,0.067c-0.05,-0.003 -0.09,-0.004 -0.121,-0.004l-0.016,-0c-0.023,0.049 -0.055,0.099 -0.094,0.148c0.042,0.016 0.105,0.043 0.188,0.082c-0.011,0.005 -0.025,0.026 -0.043,0.063c-0.047,-0.029 -0.109,-0.062 -0.188,-0.098c-0.039,0.029 -0.083,0.051 -0.132,0.066c-0.05,0.016 -0.112,0.029 -0.188,0.039c-0.003,-0.023 -0.013,-0.048 -0.031,-0.074c0.065,0 0.121,-0.005 0.168,-0.015c0.047,-0.011 0.086,-0.026 0.117,-0.047c-0.031,-0.011 -0.09,-0.032 -0.176,-0.063c0.016,-0.023 0.035,-0.057 0.059,-0.101l-0.051,-0c-0.044,-0 -0.081,0.001 -0.109,0.004l-0,-0.067c0.028,0.003 0.065,0.004 0.109,0.004l0.078,0Zm-0.351,-0.457c-0,-0.034 -0.002,-0.066 -0.004,-0.098l0.078,0c-0.003,0.032 -0.004,0.064 -0.004,0.098l-0,0.109l0.035,0c0.013,0 0.035,-0.001 0.066,-0.003l0,0.066c-0.026,-0.003 -0.045,-0.004 -0.058,-0.004l-0.043,0l-0,0.094l0.031,-0.028c0.047,0.05 0.078,0.085 0.094,0.106c-0.021,0.016 -0.039,0.031 -0.055,0.047c-0.021,-0.031 -0.044,-0.06 -0.07,-0.086l-0,0.367c-0,0.042 0.001,0.089 0.004,0.141l-0.078,-0c0.002,-0.042 0.004,-0.089 0.004,-0.141l-0,-0.309c-0.008,0.021 -0.019,0.049 -0.032,0.082c-0.015,0.037 -0.034,0.076 -0.054,0.118c-0.013,-0.016 -0.034,-0.032 -0.063,-0.047c0.034,-0.052 0.064,-0.111 0.09,-0.176c0.026,-0.065 0.043,-0.121 0.051,-0.168l-0.047,0c-0.011,0 -0.035,0.001 -0.074,0.004l-0,-0.066c0.031,0.002 0.054,0.003 0.07,0.003l0.059,0l-0,-0.109Zm0.421,0.106l0,-0.106c0,-0.029 -0.001,-0.062 -0.003,-0.102l0.078,0c-0.003,0.037 -0.004,0.071 -0.004,0.102l-0,0.106l0.144,-0c0.042,-0 0.08,-0.002 0.114,-0.004l-0,0.066c-0.037,-0.003 -0.076,-0.004 -0.118,-0.004l-0.082,0c0.034,0.039 0.067,0.07 0.098,0.094c0.031,0.023 0.072,0.047 0.121,0.07c-0.029,0.016 -0.049,0.037 -0.062,0.063c-0.071,-0.052 -0.122,-0.097 -0.155,-0.133c-0.032,-0.037 -0.052,-0.06 -0.06,-0.07l-0,0.085c-0,0.024 0.001,0.05 0.004,0.079l-0.075,-0c0.003,-0.024 0.004,-0.046 0.004,-0.067l0,-0.097c-0.018,0.031 -0.039,0.062 -0.062,0.093c-0.024,0.032 -0.061,0.073 -0.113,0.125c-0.013,-0.015 -0.033,-0.032 -0.059,-0.05c0.047,-0.034 0.083,-0.067 0.109,-0.098c0.026,-0.031 0.049,-0.063 0.067,-0.094l-0.067,0c-0.044,0 -0.079,0.001 -0.105,0.004l-0,-0.066c0.029,0.002 0.065,0.004 0.109,0.004l0.117,-0Zm-0.066,0.488c0.021,0.005 0.042,0.012 0.065,0.019c0.022,0.008 0.044,0.016 0.068,0.024c0.036,-0.042 0.064,-0.082 0.082,-0.121l-0.172,-0c-0.016,0.023 -0.03,0.049 -0.043,0.078Zm0.348,-0.621c-0.055,0.057 -0.091,0.097 -0.11,0.121c-0.018,-0.016 -0.035,-0.029 -0.05,-0.039c0.041,-0.045 0.074,-0.087 0.097,-0.129c0.021,0.018 0.042,0.034 0.063,0.047Zm-0.442,-0.047c0.032,0.034 0.067,0.071 0.106,0.113c-0.018,0.016 -0.038,0.031 -0.059,0.047c-0.031,-0.047 -0.062,-0.086 -0.094,-0.117c0.016,-0.013 0.032,-0.028 0.047,-0.043Z" style="fill:#f00;fill-rule:nonzero;"/></g></g><rect id="餐厅" x="228.123" y="1328.89" width="269.377" height="506.347" style="fill:#d1d1d1;"/><rect id="主院" x="1726.05" y="977.538" width="1023.71" height="457.462" style="fill:#d1d1d1;"/><path d="M1957.71,1114.07c-4.177,5.968 -9.25,14.473 -15.218,25.513c-5.968,11.041 -12.234,23.126 -18.799,36.255l25.065,0c7.162,-13.129 11.638,-23.573 13.428,-31.331c5.968,4.774 12.234,8.951 18.799,12.532c-4.177,3.581 -9.847,11.787 -17.008,24.618c-7.162,12.831 -17.009,29.093 -29.541,48.787c5.371,-0.597 18.5,-2.685 39.388,-6.266c-1.791,5.968 -2.984,11.637 -3.581,17.008c-7.162,0 -15.517,0.896 -25.065,2.686c-9.549,1.79 -19.694,4.177 -30.436,7.161c-1.791,-6.564 -3.581,-12.831 -5.372,-18.798c5.968,-1.791 11.489,-6.864 16.561,-15.219c5.073,-8.355 10.295,-17.903 15.666,-28.645c-14.323,0.596 -25.96,2.685 -34.912,6.266l-5.371,-17.904c7.161,-4.177 14.024,-13.577 20.589,-28.198c6.565,-14.621 11.637,-29.093 15.218,-43.416c4.774,2.387 11.637,5.371 20.589,8.951Zm124.431,98.47c11.339,0 21.782,-0.298 31.331,-0.895l0,17.009c-9.549,-0.597 -19.097,-0.895 -28.646,-0.895l-28.646,-0l0,59.082c0,10.145 -2.834,16.262 -8.504,18.351c-5.669,2.089 -13.875,3.431 -24.617,4.028c-0,-5.371 -1.194,-11.637 -3.581,-18.799c7.161,0.597 12.234,0.597 15.218,0c2.984,-0.596 4.476,-3.58 4.476,-8.951l-0,-53.711l-25.065,-0c-9.549,-0 -19.097,0.298 -28.646,0.895l-0,-17.009c9.549,0.597 19.097,0.895 28.646,0.895l68.034,0Zm-30.437,-113.688c1.194,4.775 3.581,14.622 7.162,29.541l51.025,0c-0.596,5.371 -0.895,11.638 -0.895,18.799c0,6.565 0.299,12.831 0.895,18.799l-19.694,0l0,-23.275l-86.832,0l-0,25.065l-17.904,0c0.597,-7.758 0.895,-14.919 0.895,-21.484c0,-6.565 -0.298,-12.533 -0.895,-17.904l52.816,0c-1.194,-8.355 -3.283,-17.008 -6.267,-25.96l19.694,-3.581Zm12.533,76.986c8.355,0 17.307,-0.298 26.855,-0.895l0,17.008c-9.548,-1.193 -18.5,-1.79 -26.855,-1.79l-31.331,-0c-9.549,-0 -19.098,0.597 -28.646,1.79l-0,-17.008c8.952,0.597 18.202,0.895 27.75,0.895l32.227,0Zm-91.309,119.059c5.372,-4.774 11.489,-11.935 18.352,-21.484c6.863,-9.549 12.383,-18.799 16.561,-27.751c4.177,3.581 9.548,7.162 16.113,10.742c-4.775,7.162 -9.4,14.174 -13.876,21.037c-4.475,6.863 -12.383,16.561 -23.722,29.094c-4.774,-4.178 -9.25,-8.057 -13.428,-11.638Zm-68.033,-14.323c13.726,-2.984 25.661,-5.371 35.807,-7.161c10.145,-1.79 20.589,-4.178 31.331,-7.162c0.597,5.372 1.194,10.444 1.791,15.219c-5.968,1.193 -15.368,3.431 -28.199,6.713c-12.831,3.283 -23.722,7.013 -32.674,11.19c-3.581,-6.564 -6.266,-12.831 -8.056,-18.799Zm176.35,-34.912c5.372,5.968 17.009,18.799 34.913,38.493c-5.372,4.774 -10.146,9.25 -14.323,13.428c-4.775,-5.968 -9.997,-12.533 -15.666,-19.694c-5.67,-7.162 -11.488,-14.025 -17.456,-20.589c3.581,-4.178 7.758,-8.057 12.532,-11.638Z" style="fill:#f00;fill-rule:nonzero;"/><path d="M2304.14,1220.59c-0.597,5.968 -0.895,19.694 -0.895,41.179c-0,21.484 0.298,35.508 0.895,42.073l-18.799,0l0,-17.008l-99.365,-0l-0,19.694l-17.904,-0c0.597,-7.162 0.895,-20.888 0.895,-41.179c0,-20.887 -0.298,-35.807 -0.895,-44.759l136.068,0Zm-59.977,-107.422c17.307,20.888 31.331,35.211 42.073,42.969c10.742,7.758 20.589,13.726 29.541,17.904c8.952,4.177 17.605,7.46 25.961,9.847c-5.968,6.564 -9.847,12.831 -11.638,18.798c-11.936,-5.371 -22.678,-11.04 -32.226,-17.008c-9.549,-5.968 -19.247,-13.577 -29.094,-22.827c-9.847,-9.25 -21.037,-21.932 -33.569,-38.045c-11.339,16.113 -22.529,29.391 -33.57,39.835c-11.04,10.444 -20.44,18.65 -28.198,24.618c-7.758,5.968 -16.411,11.936 -25.96,17.903c-1.194,-2.387 -5.968,-7.161 -14.323,-14.323c12.533,-5.967 24.468,-13.129 35.807,-21.484c11.339,-8.355 22.678,-18.948 34.017,-31.779c11.339,-12.831 20.589,-26.706 27.751,-41.626c6.565,4.178 12.532,7.46 17.904,9.847l-4.476,5.371Zm41.178,159.343l0,-37.598l-99.365,0l-0,37.598l99.365,-0Zm-21.484,-88.623c9.548,-0 17.903,-0.299 25.065,-0.896l-0,17.009c-7.758,-0.597 -15.815,-0.895 -24.17,-0.895l-50.13,-0c-12.533,-0 -22.678,0.298 -30.437,0.895l0,-17.009c11.339,0.597 21.485,0.896 30.437,0.896l49.235,-0Z" style="fill:#f00;fill-rule:nonzero;"/><path d="M2475.12,1226.86c3.58,-7.758 6.266,-15.218 8.056,-22.379c5.968,2.984 11.936,5.669 17.904,8.056c-2.387,2.984 -5.371,7.759 -8.952,14.323l48.34,0c10.742,0 21.783,-0.298 33.122,-0.895l-0,15.218c-11.339,-0.596 -20.589,-0.895 -27.751,-0.895l-3.581,0c-5.371,11.339 -12.532,22.678 -21.484,34.017c9.549,3.581 23.872,9.847 42.969,18.799c-2.387,1.193 -5.67,5.968 -9.847,14.323c-10.742,-6.565 -25.065,-14.025 -42.969,-22.38c-8.952,6.565 -19.097,11.638 -30.436,15.218c-11.339,3.581 -25.662,6.565 -42.969,8.952c-0.597,-5.371 -2.984,-11.04 -7.161,-17.008c14.919,-0 27.75,-1.194 38.492,-3.581c10.743,-2.387 19.694,-5.968 26.856,-10.742c-7.162,-2.387 -20.589,-7.162 -40.283,-14.323c3.58,-5.371 8.056,-13.129 13.427,-23.275l-11.637,0c-10.145,0 -18.5,0.299 -25.065,0.895l-0,-15.218c6.565,0.597 14.92,0.895 25.065,0.895l17.904,0Zm-80.567,-104.736c0,-7.758 -0.298,-15.218 -0.895,-22.379l17.904,-0c-0.597,7.161 -0.895,14.621 -0.895,22.379l-0,25.065l8.056,0c2.984,0 8.057,-0.298 15.218,-0.895l0,15.218c-5.968,-0.597 -10.444,-0.895 -13.427,-0.895l-9.847,-0l-0,21.484l7.161,-6.266c10.742,11.339 17.904,19.396 21.484,24.17c-4.774,3.581 -8.951,7.161 -12.532,10.742c-4.774,-7.161 -10.146,-13.726 -16.113,-19.694l-0,84.147c-0,9.549 0.298,20.291 0.895,32.227l-17.904,-0c0.597,-9.549 0.895,-20.291 0.895,-32.227l0,-70.719c-1.79,4.774 -4.177,11.04 -7.161,18.799c-3.581,8.355 -7.758,17.307 -12.533,26.855c-2.984,-3.581 -7.758,-7.161 -14.323,-10.742c7.759,-11.936 14.622,-25.364 20.59,-40.283c5.967,-14.92 9.847,-27.751 11.637,-38.493l-10.742,-0c-2.387,-0 -8.057,0.298 -17.009,0.895l0,-15.218c7.162,0.597 12.533,0.895 16.114,0.895l13.427,0l0,-25.065Zm96.68,24.17l-0,-24.17c-0,-6.565 -0.298,-14.323 -0.895,-23.275l17.903,0c-0.596,8.355 -0.895,16.114 -0.895,23.275l0,24.17l33.122,0c9.549,0 18.202,-0.298 25.96,-0.895l0,15.218c-8.355,-0.597 -17.307,-0.895 -26.855,-0.895l-18.799,-0c7.758,8.952 15.218,16.113 22.38,21.484c7.161,5.371 16.411,10.742 27.75,16.113c-6.564,3.581 -11.339,8.355 -14.323,14.323c-16.113,-11.935 -27.9,-22.081 -35.359,-30.436c-7.46,-8.355 -12.085,-13.726 -13.876,-16.113l0,19.694c0,5.371 0.299,11.339 0.895,17.903l-17.008,0c0.597,-5.371 0.895,-10.443 0.895,-15.218l0,-22.379c-4.177,7.161 -8.952,14.323 -14.323,21.484c-5.371,7.162 -14.024,16.71 -25.96,28.646c-2.984,-3.581 -7.46,-7.46 -13.428,-11.637c10.742,-7.759 19.097,-15.218 25.065,-22.38c5.968,-7.161 11.041,-14.323 15.218,-21.484l-15.218,-0c-10.145,-0 -18.202,0.298 -24.17,0.895l0,-15.218c6.565,0.597 14.92,0.895 25.065,0.895l26.856,0Zm-15.218,111.898c4.774,1.193 9.698,2.685 14.77,4.476c5.073,1.79 10.295,3.58 15.666,5.371c8.355,-9.549 14.621,-18.799 18.799,-27.751l-39.388,0c-3.581,5.371 -6.863,11.339 -9.847,17.904Zm79.671,-142.334c-12.532,13.129 -20.888,22.379 -25.065,27.75c-4.178,-3.58 -8.057,-6.564 -11.637,-8.951c9.548,-10.146 17.008,-19.993 22.379,-29.541c4.774,4.177 9.549,7.758 14.323,10.742Zm-101.156,-10.742c7.162,7.758 15.219,16.411 24.17,25.96c-4.177,3.581 -8.653,7.161 -13.427,10.742c-7.162,-10.742 -14.323,-19.694 -21.485,-26.855c3.581,-2.984 7.162,-6.267 10.742,-9.847Z" style="fill:#f00;fill-rule:nonzero;"/><g transform="matrix(1,0,0,1,-12.4318,-13.0613)"><g transform="matrix(229.167,0,0,229.167,265.94,1543.2)"><path d="M0.523,-0.504c0.034,0.034 0.077,0.063 0.129,0.088c0.052,0.025 0.101,0.043 0.145,0.055c0.044,0.011 0.098,0.02 0.16,0.025c-0.018,0.024 -0.033,0.051 -0.043,0.082c-0.042,-0.01 -0.075,-0.019 -0.102,-0.027c-0.026,-0.008 -0.049,-0.016 -0.07,-0.024l0,0.098c0,0.031 0.001,0.065 0.004,0.102c0.013,0.013 0.031,0.027 0.055,0.043c-0.024,0.007 -0.051,0.022 -0.082,0.042c0.052,0.019 0.1,0.037 0.144,0.055c-0.013,0.016 -0.027,0.038 -0.043,0.067c-0.065,-0.032 -0.122,-0.058 -0.172,-0.081c-0.049,-0.022 -0.106,-0.044 -0.171,-0.068c0.005,-0.008 0.013,-0.022 0.023,-0.043l-0.18,0l0,0.074c0.032,-0.007 0.072,-0.02 0.121,-0.039c0,0.029 0.002,0.054 0.004,0.075c-0.034,0.007 -0.065,0.018 -0.095,0.031c-0.03,0.013 -0.058,0.027 -0.084,0.043c-0.016,-0.026 -0.029,-0.05 -0.039,-0.071c0.013,-0.015 0.02,-0.043 0.023,-0.082l0,-0.23c-0.047,0.026 -0.099,0.052 -0.156,0.078c-0.011,-0.026 -0.026,-0.049 -0.047,-0.07c0.044,-0.013 0.086,-0.029 0.125,-0.047c0.039,-0.018 0.077,-0.04 0.115,-0.065c0.038,-0.024 0.071,-0.048 0.1,-0.072c0.028,-0.023 0.054,-0.053 0.078,-0.09c0.021,0.013 0.045,0.024 0.074,0.032l-0.016,0.019Zm-0.265,-0.141l-0,-0.085c-0,-0.021 -0.001,-0.047 -0.004,-0.079l0.074,0c-0.002,0.019 -0.004,0.039 -0.004,0.063l0.071,-0c0.026,-0 0.061,-0.001 0.105,-0.004l0,0.055c-0.039,-0.003 -0.073,-0.004 -0.102,-0.004l-0.074,-0l0,0.054l0.168,0c-0.031,0.05 -0.066,0.09 -0.103,0.122c-0.038,0.031 -0.077,0.058 -0.118,0.08c-0.04,0.022 -0.083,0.042 -0.13,0.06l-0.059,-0.058c0.034,-0.006 0.061,-0.012 0.08,-0.02c0.02,-0.008 0.042,-0.018 0.068,-0.031c-0.018,-0.013 -0.037,-0.026 -0.058,-0.039c0.01,-0.013 0.023,-0.028 0.039,-0.043c0.023,0.013 0.048,0.028 0.074,0.047c0.037,-0.019 0.068,-0.041 0.094,-0.067l-0.191,0c-0.024,0.026 -0.056,0.059 -0.098,0.098c-0.021,-0.024 -0.037,-0.039 -0.047,-0.047c0.023,-0.021 0.046,-0.044 0.068,-0.068c0.022,-0.025 0.04,-0.05 0.053,-0.077c0.01,0.014 0.024,0.028 0.039,0.043l0.055,0Zm0.613,-0.121c-0.039,0.084 -0.077,0.146 -0.113,0.188c0.041,0.026 0.084,0.053 0.129,0.082c-0.016,0.016 -0.033,0.035 -0.051,0.058c-0.039,-0.036 -0.079,-0.067 -0.121,-0.093c-0.029,0.026 -0.064,0.052 -0.106,0.078c-0.015,-0.018 -0.033,-0.034 -0.054,-0.047c0.047,-0.021 0.082,-0.043 0.105,-0.066c-0.026,-0.019 -0.064,-0.042 -0.113,-0.071c0.01,-0.013 0.023,-0.028 0.039,-0.047c0.042,0.026 0.082,0.051 0.121,0.075c0.029,-0.034 0.051,-0.069 0.066,-0.106l-0.144,0c-0.018,0 -0.046,0.001 -0.082,0.004l-0,-0.059c0.036,0.003 0.064,0.004 0.082,0.004l0.242,0Zm-0.41,0.434c-0.008,-0.018 -0.014,-0.035 -0.02,-0.051c0.026,-0.005 0.047,-0.012 0.063,-0.019c0.013,0.031 0.022,0.054 0.027,0.07l0.16,-0c-0.036,-0.013 -0.074,-0.033 -0.115,-0.059c-0.04,-0.026 -0.071,-0.052 -0.092,-0.078c-0.049,0.047 -0.11,0.093 -0.183,0.137l0.16,-0Zm0.211,0.195l-0,-0.051l-0.352,0l0,0.051l0.352,0Zm-0,-0.097l-0,-0.047l-0.352,-0l0,0.047l0.352,-0Zm-0.145,0.144c0.06,0.024 0.101,0.039 0.121,0.047c0.021,-0.013 0.043,-0.029 0.067,-0.047l-0.188,0Z" style="fill:#f00;fill-rule:nonzero;"/></g><g transform="matrix(229.167,0,0,229.167,265.94,1804.59)"><path d="M0.785,-0.75c0.057,0 0.1,-0.001 0.129,-0.004l0,0.078c-0.034,-0.002 -0.077,-0.004 -0.129,-0.004l-0.551,0l0,0.325c-0.002,0.109 -0.016,0.199 -0.041,0.271c-0.024,0.072 -0.048,0.128 -0.072,0.17c-0.018,-0.018 -0.043,-0.034 -0.074,-0.047c0.042,-0.073 0.069,-0.141 0.082,-0.205c0.013,-0.064 0.021,-0.126 0.023,-0.186l0,-0.265c0,-0.042 -0.001,-0.086 -0.004,-0.133l0.637,0Zm0.004,0.23c0.057,0 0.1,-0.001 0.129,-0.003l-0,0.074c-0.026,-0.003 -0.069,-0.004 -0.129,-0.004l-0.148,-0l-0,0.433c-0,0.045 -0.013,0.073 -0.039,0.084c-0.026,0.012 -0.073,0.021 -0.141,0.026c-0.003,-0.034 -0.013,-0.063 -0.031,-0.086c0.057,-0 0.094,-0.003 0.111,-0.008c0.017,-0.005 0.025,-0.019 0.025,-0.043l0,-0.406l-0.152,-0c-0.062,-0 -0.111,0.001 -0.144,0.004l-0,-0.074c0.039,0.002 0.085,0.003 0.14,0.003l0.379,0Z" style="fill:#f00;fill-rule:nonzero;"/></g></g></g><path d="M798.594,125.345c-0.597,8.952 -0.895,25.363 -0.895,49.235c-0,23.275 0.298,39.686 0.895,49.235l-17.904,-0l0,-10.742l-85.937,-0l-0,10.742l-17.009,-0c0.597,-7.758 0.895,-23.872 0.895,-48.34c0,-24.468 -0.298,-41.178 -0.895,-50.13l120.85,-0Zm-170.085,100.26c0.597,-9.548 0.895,-19.992 0.895,-31.331l0,-54.606c-7.758,10.145 -16.113,19.395 -25.065,27.75c-2.984,-4.774 -6.863,-9.25 -11.637,-13.427c13.129,-10.743 24.468,-22.231 34.017,-34.465c9.548,-12.234 17.008,-25.513 22.379,-39.835l-25.065,-0c-6.564,-0 -15.218,0.298 -25.96,0.895l-0,-16.114c10.145,0.597 18.5,0.896 25.065,0.896l47.445,-0c-1.791,7.161 -5.073,15.964 -9.847,26.407c-4.775,10.444 -9.847,19.844 -15.218,28.199l-0,11.637c2.984,-2.387 6.564,-5.669 10.742,-9.847c5.371,8.355 11.936,17.605 19.694,27.751c-4.178,2.387 -8.057,5.968 -11.638,10.742c-6.564,-10.145 -12.831,-18.799 -18.798,-25.96l-0,58.186c-0,12.533 0.298,23.574 0.895,33.122l-17.904,0Zm156.657,-162.028c-0.597,7.758 -0.895,15.517 -0.895,23.275c-0,7.161 0.298,15.218 0.895,24.17l-95.784,-0c0.596,-8.952 0.895,-17.307 0.895,-25.065c-0,-7.758 -0.299,-15.218 -0.895,-22.38l95.784,0Zm-108.317,-33.122c9.549,0.597 19.992,0.896 31.331,0.896l59.082,-0c10.743,-0 20.888,-0.299 30.437,-0.896l-0,16.114c-9.549,-0.597 -19.694,-0.895 -30.437,-0.895l-58.186,-0c-15.517,-0 -26.259,0.298 -32.227,0.895l-0,-16.114Zm91.309,67.139l-0,-20.589l-62.663,-0l-0,20.589l62.663,0Zm-38.493,102.051l-0,-24.17l-34.912,0l-0,24.17l34.912,-0Zm51.025,-0l0,-24.17l-34.017,0l0,24.17l34.017,-0Zm-51.025,-37.598l-0,-23.274l-34.912,-0l-0,23.274l34.912,0Zm51.025,0l0,-23.274l-34.017,-0l0,23.274l34.017,0Zm-148.6,-145.019c8.952,8.952 18.202,19.097 27.75,30.436c-5.967,3.581 -10.443,7.161 -13.427,10.742c-8.952,-12.532 -17.605,-22.678 -25.961,-30.436c5.372,-3.581 9.251,-7.162 11.638,-10.742Z" style="fill:#00f;fill-rule:nonzero;"/><path d="M1660.65,49.254c-2.984,4.775 -5.968,10.742 -8.952,17.904l51.026,-0c-0.597,8.952 -0.895,17.904 -0.895,26.855l-0,22.38c-0,6.565 0.298,15.815 0.895,27.751l-38.493,-0l0,59.977c0,7.161 -2.238,12.682 -6.714,16.561c-4.476,3.879 -11.488,6.415 -21.037,7.609c-1.79,-6.565 -4.476,-13.13 -8.056,-19.694c12.532,1.79 18.799,-1.194 18.799,-8.952l-0,-55.501l-37.598,-0c0.597,-9.549 0.895,-18.501 0.895,-26.856l0,-24.17c0,-7.758 -0.298,-16.411 -0.895,-25.96l24.17,-0c2.387,-5.371 4.774,-12.831 7.161,-22.38c5.968,1.791 12.533,3.283 19.694,4.476Zm-117.269,160.238c8.355,-7.758 14.622,-16.263 18.799,-25.513c4.178,-9.25 7.311,-20.141 9.4,-32.674c2.088,-12.532 3.282,-25.513 3.58,-38.94c0.299,-13.428 0.448,-27.9 0.448,-43.417c-0,-16.113 -0.298,-30.734 -0.895,-43.864l102.051,0c13.726,0 26.855,-0.298 39.388,-0.895l-0,17.009c-12.533,-0.597 -25.662,-0.896 -39.388,-0.896l-84.148,0l0,59.978c0,14.323 -0.447,27.303 -1.342,38.94c-0.896,11.637 -2.984,22.976 -6.267,34.017c-3.282,11.041 -7.012,20.589 -11.189,28.646c-4.178,8.057 -9.251,15.964 -15.218,23.722c-2.984,-5.968 -8.057,-11.339 -15.219,-16.113Zm12.533,-69.824c-4.178,11.935 -8.952,26.258 -14.323,42.968c-5.371,16.711 -9.25,28.945 -11.637,36.703c-5.371,-4.178 -12.234,-8.057 -20.59,-11.637c3.581,-4.775 8.356,-14.473 14.323,-29.094c5.968,-14.621 11.041,-31.48 15.219,-50.578c5.967,4.775 11.637,8.654 17.008,11.638Zm128.906,-40.283l0,-17.904l-57.291,-0l-0,17.904l57.291,-0Zm-102.946,107.421c4.775,-4.774 9.847,-10.891 15.218,-18.351c5.371,-7.46 10.743,-16.262 16.114,-26.408c4.177,4.178 10.145,8.057 17.903,11.638c-5.968,5.371 -11.339,11.786 -16.113,19.246c-4.774,7.46 -10.742,15.666 -17.904,24.618c-5.371,-4.178 -10.443,-7.759 -15.218,-10.743Zm102.946,-76.985l0,-16.114l-57.291,0l-0,16.114l57.291,-0Zm5.371,33.121c16.71,18.501 27.154,30.735 31.332,36.703c-5.371,4.177 -10.146,8.355 -14.323,12.532c-4.775,-6.564 -9.25,-12.681 -13.428,-18.351c-4.177,-5.669 -9.847,-12.383 -17.008,-20.141c4.177,-2.984 8.653,-6.565 13.427,-10.743Zm-142.334,-51.92c-4.774,-4.774 -10.443,-8.952 -17.008,-12.533l-19.694,-10.742c2.387,-4.177 5.073,-8.952 8.056,-14.323c5.372,2.984 11.787,6.416 19.247,10.295c7.46,3.879 14.174,7.609 20.142,11.19l-10.743,16.113Zm3.581,-50.13c-10.742,-11.936 -21.186,-21.485 -31.331,-28.646c3.58,-4.178 7.46,-8.355 11.637,-12.533c16.113,12.533 26.856,21.783 32.227,27.751c-4.178,4.177 -8.355,8.653 -12.533,13.428Z" style="fill:#00f;fill-rule:nonzero;"/><path d="M2567.47,196.064c-3.581,0.597 -10.444,1.791 -20.589,3.581c-10.146,1.79 -20.739,3.879 -31.779,6.266c-11.041,2.387 -19.843,4.775 -26.408,7.162c-2.387,-7.759 -4.774,-14.323 -7.162,-19.694c13.727,-1.194 26.558,-2.984 38.493,-5.371l0,-34.017c-11.339,-0 -21.484,0.298 -30.436,0.895l0,-17.009c9.549,0.597 19.694,0.896 30.436,0.896c0,-8.952 -0.298,-16.711 -0.895,-23.275l17.904,-0c-0.597,6.564 -0.895,14.323 -0.895,23.275c11.935,-0 21.484,-0.299 28.645,-0.896l0,17.009c-8.951,-0.597 -18.5,-0.895 -28.645,-0.895l-0,31.331c17.306,-2.984 28.347,-4.774 33.121,-5.371c-1.79,4.774 -2.387,10.145 -1.79,16.113Zm42.969,-102.946c10.145,0 19.097,-0.298 26.855,-0.895l0,17.009c-6.564,-0.597 -14.621,-0.896 -24.17,-0.896l0,95.785c0,7.758 -1.939,13.129 -5.818,16.113c-3.88,2.984 -12.981,5.371 -27.303,7.162c-0.597,-7.162 -3.581,-14.025 -8.952,-20.59c9.548,0 16.262,-0.149 20.141,-0.447c3.879,-0.299 5.819,-2.537 5.819,-6.714l-0,-91.309c-10.742,0 -19.097,0.299 -25.065,0.896l-0,-17.904c6.565,1.193 14.323,1.79 23.275,1.79l15.218,0Zm-121.745,-8.056c-4.178,2.984 -7.46,6.863 -9.847,11.637l-8.057,16.113l0,84.147c0,10.146 0.299,19.993 0.895,29.541l-17.903,0c0.597,-14.919 0.895,-28.049 0.895,-39.388l-0,-56.396c-5.371,7.758 -11.041,15.516 -17.008,23.275c-2.984,-4.775 -7.46,-9.251 -13.428,-13.428c8.952,-7.758 17.605,-17.755 25.96,-29.989c8.355,-12.234 14.92,-24.319 19.694,-36.255c6.565,4.178 12.831,7.759 18.799,10.743Zm31.331,-33.122c0,-12.533 -0.298,-22.38 -0.895,-29.541l17.904,-0c-0.597,8.355 -0.895,18.202 -0.895,29.541c10.145,-0 18.798,-0.299 25.96,-0.895l-0,16.113c-7.758,-0.597 -16.412,-0.895 -25.96,-0.895l-0,28.646c10.145,-0 19.694,-0.299 28.645,-0.896l0,17.904c-7.758,-1.79 -16.113,-2.685 -25.065,-2.685l-20.589,-0c-12.532,-0 -22.379,0.895 -29.541,2.685l0,-17.904c8.355,0.597 18.501,0.896 30.436,0.896l0,-28.646c-10.145,-0 -19.097,0.597 -26.855,1.79l-0,-17.008c8.952,0.596 17.903,0.895 26.855,0.895Zm-34.017,-21.485c-4.177,2.388 -11.04,9.549 -20.589,21.485c-9.548,11.936 -17.903,22.081 -25.065,30.436c-4.177,-5.371 -8.653,-9.847 -13.428,-13.428c9.549,-7.161 18.202,-15.964 25.961,-26.408c7.758,-10.443 12.831,-18.649 15.218,-24.617c5.371,3.581 11.339,7.758 17.903,12.532Zm126.221,8.952c2.984,0 9.25,-0.298 18.799,-0.895l-0,16.113c-9.549,-0.596 -15.815,-0.895 -18.799,-0.895l-17.008,0c-4.178,0 -11.041,0.299 -20.59,0.895l0,-16.113c9.549,0 16.412,0.299 20.59,0.895l17.008,0Z" style="fill:#00f;fill-rule:nonzero;"/><g transform="matrix(1,0,0,1,7.61162,0)"><g transform="matrix(229.167,0,0,229.167,3258.2,507.544)"><path d="M0.375,-0.414c0.057,0.052 0.115,0.111 0.172,0.176c-0.018,0.015 -0.038,0.035 -0.059,0.058c-0.036,-0.054 -0.074,-0.103 -0.113,-0.144l-0,0.289c-0,0.062 0.001,0.109 0.004,0.14l-0.086,0c0.003,-0.033 0.004,-0.08 0.004,-0.14l-0,-0.274c-0.029,0.055 -0.056,0.101 -0.082,0.137c-0.026,0.037 -0.06,0.08 -0.102,0.129c-0.015,-0.026 -0.037,-0.048 -0.066,-0.066c0.057,-0.047 0.109,-0.106 0.154,-0.178c0.046,-0.072 0.075,-0.13 0.088,-0.174l-0.074,0c-0.063,0 -0.108,0.001 -0.137,0.004l0,-0.074c0.031,0.002 0.077,0.004 0.137,0.004l0.082,-0l-0,-0.153c-0.052,0.011 -0.108,0.021 -0.168,0.032c-0.008,-0.026 -0.018,-0.051 -0.031,-0.075c0.044,-0.002 0.105,-0.011 0.183,-0.027c0.078,-0.016 0.153,-0.035 0.223,-0.059c0.013,0.032 0.03,0.059 0.051,0.082c-0.052,0.008 -0.112,0.019 -0.18,0.032l-0,0.168l0.066,-0c0.055,-0 0.103,-0.002 0.145,-0.004l-0,0.074c-0.042,-0.003 -0.089,-0.004 -0.141,-0.004l-0.07,0l-0,0.047Zm0.527,-0.387c-0.002,0.026 -0.004,0.071 -0.004,0.133l0,0.684c0,0.031 -0.012,0.051 -0.037,0.06c-0.024,0.009 -0.068,0.019 -0.131,0.029c-0.007,-0.039 -0.016,-0.07 -0.027,-0.093c0.055,0.002 0.088,0.001 0.1,-0.004c0.011,-0.005 0.017,-0.016 0.017,-0.031l0,-0.649c0,-0.036 -0.001,-0.079 -0.004,-0.129l0.086,0Zm-0.179,0.16c-0.003,0.032 -0.004,0.073 -0.004,0.125l-0,0.246c-0,0.055 0.001,0.102 0.004,0.141l-0.086,0c0.002,-0.047 0.004,-0.094 0.004,-0.141l-0,-0.246c-0,-0.041 -0.002,-0.083 -0.004,-0.125l0.086,0Z" style="fill:#00f;fill-rule:nonzero;"/></g><g transform="matrix(229.167,0,0,229.167,3258.2,1130.33)"><path d="M0.539,-0.496c0.003,0.049 0.008,0.095 0.016,0.137l0.199,-0c0.036,-0 0.079,-0.002 0.129,-0.004l-0,0.074c-0.044,-0.003 -0.087,-0.004 -0.129,-0.004l-0.188,0c0.026,0.102 0.069,0.177 0.127,0.227c0.059,0.049 0.099,0.072 0.119,0.068c0.021,-0.004 0.035,-0.017 0.042,-0.039c0.006,-0.022 0.009,-0.044 0.009,-0.065c0.026,0.019 0.056,0.033 0.09,0.043c-0.021,0.058 -0.04,0.097 -0.058,0.118c-0.019,0.02 -0.049,0.028 -0.09,0.023c-0.042,-0.005 -0.08,-0.021 -0.116,-0.047c-0.035,-0.026 -0.065,-0.055 -0.089,-0.088c-0.025,-0.032 -0.047,-0.068 -0.065,-0.107c-0.018,-0.039 -0.032,-0.083 -0.043,-0.133l-0.273,0l-0,0.258c0.065,-0.031 0.126,-0.064 0.183,-0.098c0.003,0.031 0.009,0.057 0.02,0.078c-0.055,0.024 -0.105,0.048 -0.151,0.073c-0.045,0.024 -0.086,0.048 -0.123,0.072c-0.015,-0.024 -0.032,-0.046 -0.05,-0.067c0.031,-0.02 0.045,-0.062 0.043,-0.125l-0,-0.488c-0,-0.06 -0.002,-0.117 -0.004,-0.172l0.687,0c-0.002,0.047 -0.004,0.09 -0.004,0.129c0,0.037 0.002,0.082 0.004,0.137l-0.285,-0Zm0.203,-0.063l0,-0.14l-0.523,-0l-0,0.14l0.523,0Zm-0.262,0.2c-0.007,-0.052 -0.013,-0.098 -0.015,-0.137l-0.246,-0l-0,0.137l0.261,-0Z" style="fill:#00f;fill-rule:nonzero;"/></g><g transform="matrix(229.167,0,0,229.167,3258.2,1753.12)"><path d="M0.453,-0.066c-0.174,0.052 -0.301,0.092 -0.379,0.121c-0.005,-0.021 -0.015,-0.046 -0.031,-0.075c0.026,-0.002 0.048,-0.007 0.066,-0.015l0,-0.246c0,-0.021 -0.001,-0.048 -0.004,-0.082l0.075,-0c-0.003,0.023 -0.004,0.057 -0.004,0.101l-0,0.211c0.018,-0.005 0.04,-0.011 0.066,-0.019l0,-0.395l-0.129,0c0.003,-0.026 0.004,-0.071 0.004,-0.137c0,-0.067 -0.001,-0.114 -0.004,-0.14l0.301,-0c-0.003,0.028 -0.004,0.075 -0.004,0.14c0,0.063 0.001,0.109 0.004,0.137l-0.105,0l-0,0.141c0.031,-0 0.063,-0.002 0.097,-0.004l0,0.07c-0.034,-0.002 -0.066,-0.004 -0.097,-0.004l-0,0.176c0.023,-0.005 0.071,-0.022 0.144,-0.051c-0.002,0.021 -0.002,0.045 0,0.071Zm0.207,-0.719c-0.015,0.018 -0.031,0.043 -0.047,0.074l0.285,0c-0.018,0.044 -0.042,0.091 -0.072,0.141c-0.03,0.049 -0.058,0.091 -0.084,0.125c0.06,0.047 0.136,0.08 0.227,0.101c-0.021,0.026 -0.037,0.05 -0.047,0.071c-0.031,-0.013 -0.068,-0.031 -0.11,-0.053c-0.041,-0.022 -0.079,-0.046 -0.113,-0.072c-0.034,0.026 -0.071,0.049 -0.111,0.07c-0.04,0.021 -0.084,0.042 -0.131,0.062c-0.01,-0.023 -0.025,-0.045 -0.043,-0.066c0.034,-0.008 0.073,-0.021 0.117,-0.039c0.045,-0.018 0.084,-0.042 0.117,-0.07c-0.026,-0.026 -0.063,-0.069 -0.113,-0.129c-0.018,0.031 -0.035,0.057 -0.051,0.078c-0.015,-0.016 -0.035,-0.03 -0.058,-0.043c0.028,-0.026 0.057,-0.066 0.086,-0.119c0.028,-0.054 0.05,-0.108 0.066,-0.162c0.029,0.018 0.056,0.028 0.082,0.031Zm0.203,0.504c-0.002,0.034 -0.004,0.094 -0.004,0.179c0,0.084 0.002,0.145 0.004,0.184l-0.074,0l0,-0.074l-0.223,-0l0,0.078l-0.07,-0c0.003,-0.044 0.004,-0.107 0.004,-0.188c0,-0.083 -0.001,-0.143 -0.004,-0.179l0.367,-0Zm-0.074,0.23l0,-0.168l-0.223,0l0,0.168l0.223,0Zm-0.445,-0.472l-0,-0.161l-0.16,0l-0,0.161l0.16,-0Zm0.226,-0.102c0.032,0.047 0.072,0.092 0.121,0.137c0.016,-0.016 0.034,-0.041 0.055,-0.076c0.021,-0.036 0.037,-0.065 0.047,-0.088l-0.207,-0l-0.016,0.027Z" style="fill:#00f;fill-rule:nonzero;"/></g></g><path d="M867.173,1689.88c-0,-12.532 -0.299,-25.065 -0.895,-37.598l68.929,0c-7.162,20.291 -14.622,43.268 -22.38,68.929c10.742,14.92 17.307,26.558 19.694,34.913c2.387,8.355 2.536,15.814 0.448,22.379c-2.089,6.565 -5.819,11.339 -11.19,14.323c-5.371,2.984 -13.13,5.371 -23.275,7.162c-1.193,-7.759 -2.984,-14.323 -5.371,-19.694c11.339,-0 18.202,-1.343 20.589,-4.029c2.387,-2.685 3.432,-6.564 3.133,-11.637c-0.298,-5.073 -2.387,-11.19 -6.266,-18.351c-3.879,-7.162 -9.399,-14.323 -16.561,-21.485c7.162,-18.5 13.428,-37.896 18.799,-58.187l-28.646,0l0,176.351l-17.903,0c0.596,-19.097 0.895,-34.017 0.895,-44.759l-0,-108.317Zm117.269,-1.79c8.951,0.597 17.605,0.895 25.96,0.895l18.799,-0l-0,-20.589c-0,-5.968 -0.299,-15.517 -0.895,-28.646l18.798,-0c-0.596,13.129 -0.895,22.678 -0.895,28.646l0,20.589c6.565,-0 13.13,-0.298 19.694,-0.895l0,15.218c-6.564,-0.597 -13.129,-0.895 -19.694,-0.895l0,110.107c-0.597,10.742 -3.581,17.456 -8.952,20.142c-5.371,2.685 -14.621,4.923 -27.75,6.714c-1.194,-7.759 -3.283,-14.323 -6.267,-19.694c9.549,-0 16.263,-0.448 20.142,-1.343c3.879,-0.895 5.819,-4.924 5.819,-12.085l-0,-102.946l-18.799,-0c-7.162,-0 -15.815,0.298 -25.96,0.895l-0,-16.113Zm-28.646,29.541c-6.565,11.339 -11.638,19.992 -15.218,25.96c-4.775,-4.774 -9.549,-8.355 -14.323,-10.742c7.161,-8.355 14.621,-20.739 22.379,-37.15c7.759,-16.412 14.025,-35.36 18.799,-56.844c6.565,2.387 13.726,4.774 21.485,7.161c-2.388,3.581 -4.327,7.162 -5.819,10.742c-1.492,3.581 -4.924,12.533 -10.295,26.856l0,119.954c0,13.13 0.299,25.364 0.895,36.703l-18.798,-0c0.596,-18.501 0.895,-30.735 0.895,-36.703l-0,-85.937Zm42.073,51.025c-2.984,-12.532 -6.564,-25.065 -10.742,-37.597c7.758,-1.791 13.726,-2.984 17.904,-3.581c3.581,11.936 6.564,24.468 8.952,37.597c-3.581,0.597 -8.952,1.791 -16.114,3.581Z" style="fill-rule:nonzero;"/><path d="M1156.32,1654.97c-2.984,7.161 -6.267,16.71 -9.847,28.646c-3.581,11.936 -7.46,23.871 -11.638,35.807c11.339,14.323 18.501,25.513 21.485,33.569c2.984,8.057 3.58,15.965 1.79,23.723c-1.79,7.758 -5.67,13.726 -11.637,17.903c-5.968,4.178 -14.025,6.267 -24.17,6.267c-0,-6.565 -1.194,-13.428 -3.581,-20.589c11.339,1.79 18.053,0.596 20.142,-3.581c2.088,-4.178 2.685,-9.25 1.79,-15.218c-0.895,-5.968 -3.432,-12.085 -7.609,-18.352c-4.178,-6.266 -9.25,-12.98 -15.218,-20.141c2.387,-7.758 5.222,-16.561 8.504,-26.408c3.282,-9.847 5.819,-19.545 7.609,-29.093l-25.065,-0l-0,179.036l-17.009,0c0.597,-11.339 0.896,-25.065 0.896,-41.178l-0,-113.689c-0,-13.129 -0.299,-25.363 -0.896,-36.702l64.454,0Zm94.889,89.518c10.742,0 20.589,-0.298 29.541,-0.895l-0,15.218c-8.952,-0.597 -15.218,-0.895 -18.799,-0.895l-15.218,-0l0,56.396c0,7.162 2.536,10.892 7.609,11.19c5.073,0.299 9.399,0.299 12.98,0c3.581,-0.298 6.117,-1.939 7.609,-4.923c1.492,-2.984 2.537,-8.952 3.133,-17.904c5.371,3.581 11.041,6.266 17.009,8.057c-2.984,15.516 -7.311,24.468 -12.98,26.855c-5.67,2.387 -15.815,3.283 -30.436,2.686c-14.622,-0.597 -21.634,-8.355 -21.037,-23.275l-0,-59.082l-20.589,-0c0.596,14.92 -0.896,28.795 -4.476,41.626c-3.581,12.831 -9.847,22.976 -18.799,30.436c-8.952,7.46 -18.501,12.98 -28.646,16.561c-2.387,-4.774 -6.863,-9.25 -13.428,-13.428c25.065,-7.758 39.687,-18.351 43.864,-31.779c4.178,-13.427 5.968,-27.9 5.371,-43.416c-13.726,-0 -23.573,0.298 -29.541,0.895l0,-15.218c7.758,0.597 17.009,0.895 27.751,0.895l59.082,0Zm36.702,-77.881c-0.596,5.371 -0.895,10.743 -0.895,16.114c0,5.371 0.299,11.04 0.895,17.008l-17.903,0l-0,-20.589l-89.518,-0l-0,19.694l-17.904,-0c0.597,-5.371 0.895,-10.444 0.895,-15.218c0,-4.774 -0.298,-10.444 -0.895,-17.009l125.325,0Zm-50.13,42.074c12.533,-0 22.38,-0.298 29.541,-0.895l0,15.218c-7.758,-0.597 -17.605,-0.895 -29.541,-0.895l-25.96,-0c-13.129,-0 -23.872,0.298 -32.227,0.895l0,-15.218c7.759,0.597 18.202,0.895 31.332,0.895l26.855,-0Zm-0.895,-51.025c-5.371,1.79 -10.444,4.475 -15.218,8.056c-2.984,-6.564 -8.355,-14.323 -16.113,-23.275c5.371,-2.387 9.847,-5.371 13.427,-8.951c9.549,12.532 15.517,20.589 17.904,24.17Z" style="fill-rule:nonzero;"/><path d="M1497.38,1640.65l9.847,11.637c-34.017,25.066 -50.429,54.01 -49.235,86.833c0.597,31.63 16.71,59.082 48.34,82.357l-9.847,11.637c-36.404,-26.258 -54.009,-59.38 -52.816,-99.365c0,-32.823 17.904,-63.856 53.711,-93.099Z" style="fill-rule:nonzero;"/><path d="M1668.36,1753.44c10.145,-4.774 19.694,-9.847 28.646,-15.218l-42.969,-0c-8.952,-0 -20.589,0.298 -34.912,0.895l-0,-17.008c13.726,0.596 24.767,0.895 33.122,0.895l79.671,-0l-0,17.008c-8.952,3.581 -17.158,7.162 -24.618,10.743c-7.46,3.58 -14.173,7.161 -20.141,10.742l-0,9.847l33.121,-0c7.759,-0 17.606,-0.299 29.541,-0.895l0,17.008c-11.339,-0.597 -20.887,-0.895 -28.645,-0.895l-34.017,-0l-0,35.807c-0,7.162 -2.387,12.383 -7.162,15.666c-4.774,3.282 -13.427,6.117 -25.96,8.504c-1.79,-7.758 -5.073,-15.218 -9.847,-22.38c10.742,0.597 17.605,0.597 20.589,0c2.984,-0.596 4.476,-5.072 4.476,-13.427l0,-24.17l-34.017,-0c-9.548,-0 -20.887,0.298 -34.017,0.895l0,-17.008c13.726,0.596 25.065,0.895 34.017,0.895l34.017,-0c0,-6.565 -0.298,-12.533 -0.895,-17.904Zm-57.292,-102.051c13.13,0.597 33.57,-0.149 61.32,-2.238c27.751,-2.088 46.4,-4.625 55.949,-7.609c2.387,6.565 5.968,12.831 10.742,18.799c-8.952,0 -25.96,1.044 -51.025,3.133c-25.065,2.089 -48.042,3.73 -68.929,4.924c-1.194,-5.968 -3.879,-11.638 -8.057,-17.009Zm-17.903,114.584c-17.307,41.178 -28.049,66.243 -32.227,75.195c-4.178,-4.774 -11.041,-8.952 -20.589,-12.533c5.968,-6.564 12.234,-17.157 18.799,-31.779c6.564,-14.621 11.637,-28.795 15.218,-42.521c6.564,5.968 12.831,9.847 18.799,11.638Zm103.841,-54.607c3.58,-5.371 7.758,-12.83 12.532,-22.379c4.775,-9.549 8.057,-17.904 9.847,-25.065c5.968,2.984 12.533,5.968 19.694,8.952c-2.387,2.387 -6.266,8.951 -11.637,19.694c-5.371,10.742 -9.847,19.097 -13.428,25.065c-4.774,-2.984 -10.444,-5.073 -17.008,-6.267Zm-138.754,-15.218c13.13,8.355 25.961,16.71 38.493,25.065c-5.371,4.775 -9.548,10.146 -12.532,16.114c-8.952,-7.758 -21.186,-16.412 -36.703,-25.961c3.581,-4.774 7.162,-9.847 10.742,-15.218Zm11.638,-57.291c12.532,8.952 24.767,17.903 36.702,26.855c-4.774,4.178 -9.25,8.952 -13.427,14.323c-10.146,-10.145 -21.783,-19.097 -34.913,-26.855c4.178,-3.581 8.057,-8.355 11.638,-14.323Zm102.051,29.541c7.161,13.726 12.831,25.065 17.008,34.017c-6.565,1.79 -12.234,4.476 -17.008,8.056c-3.581,-10.145 -8.654,-21.782 -15.219,-34.912c5.968,-2.387 11.041,-4.774 15.219,-7.161Zm-39.388,8.056c6.564,13.727 11.935,25.364 16.113,34.912c-5.371,1.791 -11.041,4.178 -17.009,7.162c-3.58,-10.742 -8.653,-22.38 -15.218,-34.912c5.968,-1.791 11.339,-4.178 16.114,-7.162Z" style="fill-rule:nonzero;"/><path d="M1970.93,1646.02c-0.596,11.339 -0.895,23.275 -0.895,35.807l0,118.165c0,12.532 0.299,26.258 0.895,41.178l-17.008,-0l0,-19.694l-80.566,-0l-0,19.694l-17.009,-0c0.597,-11.936 0.895,-25.662 0.895,-41.178l0,-116.374c0,-13.726 -0.298,-26.259 -0.895,-37.598l114.583,0Zm-17.008,162.028l0,-147.705l-80.566,0l-0,147.705l80.566,0Zm-128.906,-165.609c-1.194,19.694 -1.791,39.687 -1.791,59.978c5.968,-6.565 11.638,-13.726 17.009,-21.485c3.581,4.775 7.758,9.549 12.532,14.323c-9.548,7.162 -19.395,16.412 -29.541,27.751c-0.596,10.145 -1.492,22.678 -2.685,37.598c11.936,13.726 22.678,25.661 32.226,35.807c-4.177,3.581 -8.653,7.758 -13.427,12.532c-5.968,-10.742 -13.428,-20.887 -22.38,-30.436c-2.984,13.726 -6.714,25.364 -11.19,34.912c-4.476,9.549 -9.399,18.501 -14.77,26.856c-5.968,-4.775 -11.339,-8.355 -16.113,-10.742c7.758,-8.952 14.024,-19.098 18.798,-30.437c4.775,-11.339 8.355,-24.468 10.743,-39.388c2.387,-14.919 3.58,-32.226 3.58,-51.92c0,-20.291 -0.298,-42.969 -0.895,-68.034c5.371,1.193 11.339,2.089 17.904,2.685Zm97.575,27.751c-1.194,8.952 -1.791,20.888 -1.791,35.807c9.549,0 18.202,-0.298 25.961,-0.895l-0,15.218c-7.759,-0.596 -16.412,-0.895 -25.961,-0.895l-1.79,11.638c14.323,19.097 25.065,34.912 32.226,47.444c-5.371,2.984 -10.145,5.67 -14.322,8.057c-6.565,-12.533 -14.025,-25.662 -22.38,-39.388c-4.774,15.516 -11.637,30.734 -20.589,45.654c-4.178,-2.387 -10.146,-4.774 -17.904,-7.161c7.162,-8.355 13.279,-18.352 18.351,-29.989c5.073,-11.637 8.206,-23.722 9.4,-36.255c-7.758,0 -16.113,0.299 -25.065,0.895l-0,-15.218c8.952,0.597 17.605,0.895 25.96,0.895c-0,-13.726 -0.298,-26.557 -0.895,-38.492c5.968,1.193 12.234,2.088 18.799,2.685Zm-126.221,20.589c-2.984,29.84 -4.774,50.131 -5.371,60.873c-5.371,-0.597 -10.444,-0.895 -15.218,-0.895c1.193,-11.936 2.387,-32.525 3.58,-61.768c5.372,0.597 11.041,1.194 17.009,1.79Z" style="fill-rule:nonzero;"/><path d="M2034.49,1689.88c-0.596,14.323 -0.895,26.259 -0.895,35.807l0,82.357l62.663,0l0,-134.277c0,-10.742 -0.298,-21.485 -0.895,-32.227l19.694,0c-0.597,8.355 -0.895,19.097 -0.895,32.227l-0,134.277l62.662,0l0,-84.147c0,-13.129 -0.298,-24.17 -0.895,-33.122l20.589,0c-0.596,7.162 -0.895,18.202 -0.895,33.122l0,72.51c0,14.323 0.299,29.541 0.895,45.654l-19.694,0l0,-18.799l-162.923,0c0.597,-13.129 0.895,-25.96 0.895,-38.493l0,-58.186c0,-13.727 -0.298,-25.961 -0.895,-36.703l20.589,0Z" style="fill-rule:nonzero;"/><path d="M2302.15,1654.97c-2.984,7.161 -6.266,16.71 -9.847,28.646c-3.581,11.936 -7.46,23.871 -11.637,35.807c11.339,14.323 18.5,25.513 21.484,33.569c2.984,8.057 3.581,15.965 1.79,23.723c-1.79,7.758 -5.669,13.726 -11.637,17.903c-5.968,4.178 -14.025,6.267 -24.17,6.267c0,-6.565 -1.194,-13.428 -3.581,-20.589c11.339,1.79 18.053,0.596 20.142,-3.581c2.089,-4.178 2.685,-9.25 1.79,-15.218c-0.895,-5.968 -3.431,-12.085 -7.609,-18.352c-4.177,-6.266 -9.25,-12.98 -15.218,-20.141c2.387,-7.758 5.222,-16.561 8.504,-26.408c3.283,-9.847 5.819,-19.545 7.609,-29.093l-25.065,-0l0,179.036l-17.008,0c0.597,-11.339 0.895,-25.065 0.895,-41.178l-0,-113.689c-0,-13.129 -0.298,-25.363 -0.895,-36.702l64.453,0Zm94.889,89.518c10.742,0 20.589,-0.298 29.541,-0.895l0,15.218c-8.952,-0.597 -15.218,-0.895 -18.799,-0.895l-15.218,-0l0,56.396c0,7.162 2.537,10.892 7.609,11.19c5.073,0.299 9.4,0.299 12.981,0c3.58,-0.298 6.117,-1.939 7.609,-4.923c1.492,-2.984 2.536,-8.952 3.133,-17.904c5.371,3.581 11.04,6.266 17.008,8.057c-2.984,15.516 -7.31,24.468 -12.98,26.855c-5.669,2.387 -15.815,3.283 -30.436,2.686c-14.621,-0.597 -21.634,-8.355 -21.037,-23.275l0,-59.082l-20.589,-0c0.597,14.92 -0.895,28.795 -4.476,41.626c-3.581,12.831 -9.847,22.976 -18.799,30.436c-8.952,7.46 -18.5,12.98 -28.646,16.561c-2.387,-4.774 -6.863,-9.25 -13.427,-13.428c25.065,-7.758 39.686,-18.351 43.863,-31.779c4.178,-13.427 5.968,-27.9 5.372,-43.416c-13.727,-0 -23.574,0.298 -29.541,0.895l-0,-15.218c7.758,0.597 17.008,0.895 27.75,0.895l59.082,0Zm36.703,-77.881c-0.597,5.371 -0.895,10.743 -0.895,16.114c-0,5.371 0.298,11.04 0.895,17.008l-17.904,0l0,-20.589l-89.518,-0l-0,19.694l-17.904,-0c0.597,-5.371 0.895,-10.444 0.895,-15.218c0,-4.774 -0.298,-10.444 -0.895,-17.009l125.326,0Zm-50.13,42.074c12.532,-0 22.379,-0.298 29.541,-0.895l-0,15.218c-7.759,-0.597 -17.606,-0.895 -29.541,-0.895l-25.961,-0c-13.129,-0 -23.871,0.298 -32.226,0.895l-0,-15.218c7.758,0.597 18.202,0.895 31.331,0.895l26.856,-0Zm-0.896,-51.025c-5.371,1.79 -10.443,4.475 -15.218,8.056c-2.984,-6.564 -8.355,-14.323 -16.113,-23.275c5.371,-2.387 9.847,-5.371 13.428,-8.951c9.548,12.532 15.516,20.589 17.903,24.17Z" style="fill-rule:nonzero;"/><path d="M2658.43,1661.24c-8.951,-0.597 -20.887,-0.895 -35.807,-0.895l-132.487,0l0,165.609l145.915,-0c11.936,-0 21.484,-0.299 28.646,-0.895l-0,16.113c-7.758,-0.597 -17.904,-0.895 -30.436,-0.895l-162.924,-0c0.597,-14.323 0.896,-24.767 0.896,-31.332l-0,-136.067c-0,-10.146 -0.299,-19.396 -0.896,-27.751l187.093,0l0,16.113Zm-128.011,23.275c20.888,14.323 39.09,28.347 54.607,42.074c13.726,-16.114 23.871,-32.227 30.436,-48.34c6.564,4.177 14.323,8.355 23.274,12.532c-6.564,4.178 -12.234,9.847 -17.008,17.009c-4.774,7.161 -11.936,17.307 -21.484,30.436c20.29,16.71 36.702,33.122 49.235,49.235c-7.162,4.774 -12.234,9.847 -15.218,15.218c-9.549,-14.323 -25.364,-30.735 -47.445,-49.235c-8.952,10.145 -18.053,19.396 -27.303,27.751c-9.25,8.355 -20.739,17.605 -34.465,27.75c-5.371,-5.371 -11.339,-9.847 -17.903,-13.427c11.935,-5.371 22.678,-11.787 32.226,-19.247c9.549,-7.46 20.888,-19.246 34.017,-35.359c-14.92,-13.727 -33.42,-27.453 -55.501,-41.179c5.968,-4.774 10.145,-9.847 12.532,-15.218Z" style="fill-rule:nonzero;"/><path d="M2713.93,1640.65c35.807,29.243 53.711,60.276 53.711,93.099c1.193,39.985 -16.412,73.107 -52.816,99.365l-9.847,-11.637c31.63,-23.275 47.743,-50.727 48.34,-82.357c1.193,-32.823 -15.218,-61.767 -49.235,-86.833l9.847,-11.637Z" style="fill-rule:nonzero;"/><g transform="matrix(1,0,0,1,713.55,2.84217e-14)"><g transform="matrix(136.442,0,0,136.442,156.703,450.685)"><path d="M0.453,-0.02l-0.406,0l-0,-0.668l0.09,0.001l-0,0.593l0.316,0l0,0.074Z" style="fill:#246766;fill-rule:nonzero;"/></g><g transform="matrix(136.442,0,0,136.442,224.924,450.685)"><path d="M0.281,-0.582l-0.078,-0l0,-0.102l0.078,0l0,0.102Zm0,0.562l-0.078,0l0,-0.437l0.078,-0l0,0.437Z" style="fill:#246766;fill-rule:nonzero;"/></g><g transform="matrix(136.442,0,0,136.442,293.145,450.685)"><path d="M0.438,-0.02l-0.079,0l0,-0.281c0,-0.031 -0.007,-0.056 -0.023,-0.074c-0.016,-0.018 -0.037,-0.027 -0.063,-0.027c-0.033,-0 -0.065,0.017 -0.095,0.052c-0.03,0.036 -0.045,0.079 -0.045,0.131l-0,0.199l-0.078,0l-0,-0.437l0.078,-0l-0,0.082c0.021,-0.029 0.043,-0.051 0.068,-0.066c0.025,-0.016 0.057,-0.024 0.096,-0.024c0.047,0 0.082,0.013 0.105,0.039c0.024,0.026 0.036,0.059 0.036,0.098l-0,0.308Z" style="fill:#246766;fill-rule:nonzero;"/></g><g transform="matrix(136.442,0,0,136.442,361.365,450.685)"><path d="M0.457,-0.02l-0.09,0l-0.14,-0.238l-0.09,0.086l-0,0.152l-0.078,0l-0,-0.668l0.078,0.001l-0,0.425l0.195,-0.195l0.098,-0l-0.153,0.148l0.18,0.289Z" style="fill:#246766;fill-rule:nonzero;"/></g><g transform="matrix(136.442,0,0,136.442,429.586,450.685)"><path d="M0.465,-0.285c-0.003,0.099 -0.024,0.169 -0.063,0.211c-0.039,0.041 -0.086,0.062 -0.14,0.062c-0.063,0 -0.116,-0.025 -0.16,-0.076c-0.045,-0.051 -0.067,-0.132 -0.067,-0.244c0,-0.122 0.022,-0.214 0.065,-0.273c0.043,-0.06 0.098,-0.09 0.166,-0.09c0.057,-0 0.104,0.021 0.142,0.064c0.038,0.043 0.056,0.104 0.053,0.182l-0.086,-0c0,-0.058 -0.009,-0.1 -0.027,-0.129c-0.019,-0.029 -0.046,-0.043 -0.082,-0.043c-0.042,-0 -0.075,0.021 -0.1,0.064c-0.025,0.043 -0.037,0.116 -0.037,0.217c-0,0.094 0.012,0.16 0.037,0.197c0.025,0.038 0.057,0.057 0.096,0.057c0.028,0 0.054,-0.014 0.078,-0.041c0.023,-0.027 0.035,-0.08 0.035,-0.158l0.09,-0Z" style="fill:#246766;fill-rule:nonzero;"/></g><g transform="matrix(136.442,0,0,136.442,497.807,450.685)"><path d="M0.438,-0.02l-0.079,0l0,-0.281c0,-0.031 -0.007,-0.056 -0.023,-0.074c-0.016,-0.018 -0.037,-0.027 -0.063,-0.027c-0.033,-0 -0.065,0.017 -0.095,0.052c-0.03,0.036 -0.045,0.079 -0.045,0.131l-0,0.199l-0.078,0l-0,-0.668l0.078,0.001l-0,0.312c0.021,-0.029 0.043,-0.051 0.068,-0.066c0.025,-0.016 0.057,-0.024 0.096,-0.024c0.047,0 0.082,0.013 0.105,0.039c0.024,0.026 0.036,0.059 0.036,0.098l-0,0.308Z" style="fill:#246766;fill-rule:nonzero;"/></g><g transform="matrix(136.442,0,0,136.442,566.028,450.685)"><path d="M0.457,-0.238c0,0.067 -0.021,0.122 -0.062,0.164c-0.042,0.041 -0.092,0.062 -0.149,0.062c-0.057,0 -0.107,-0.021 -0.148,-0.062c-0.042,-0.042 -0.063,-0.097 -0.063,-0.164c0,-0.068 0.021,-0.123 0.063,-0.164c0.041,-0.042 0.091,-0.063 0.148,-0.063c0.057,0 0.107,0.021 0.149,0.063c0.041,0.041 0.062,0.096 0.062,0.164Zm-0.086,-0c0,-0.052 -0.013,-0.091 -0.039,-0.117c-0.026,-0.027 -0.055,-0.04 -0.086,-0.04c-0.031,0 -0.06,0.013 -0.086,0.04c-0.026,0.026 -0.039,0.065 -0.039,0.117c0,0.052 0.013,0.091 0.039,0.117c0.026,0.026 0.055,0.039 0.086,0.039c0.031,-0 0.06,-0.013 0.086,-0.039c0.026,-0.026 0.039,-0.065 0.039,-0.117Z" style="fill:#246766;fill-rule:nonzero;"/></g><g transform="matrix(136.442,0,0,136.442,634.249,450.685)"><path d="M0.438,-0.02l-0.079,0l0,-0.082c-0.02,0.029 -0.043,0.051 -0.068,0.067c-0.025,0.015 -0.057,0.023 -0.096,0.023c-0.047,0 -0.082,-0.013 -0.105,-0.039c-0.024,-0.026 -0.035,-0.058 -0.035,-0.097l-0,-0.309l0.078,-0l-0,0.281c-0,0.031 0.008,0.056 0.023,0.074c0.016,0.019 0.037,0.028 0.063,0.028c0.034,-0 0.066,-0.018 0.095,-0.053c0.03,-0.035 0.045,-0.079 0.045,-0.131l0,-0.199l0.079,-0l-0,0.437Z" style="fill:#246766;fill-rule:nonzero;"/></g><g transform="matrix(136.442,0,0,136.442,88.4823,606.314)"><path d="M0.047,-0.039c0.002,-0.039 0.021,-0.074 0.055,-0.106c0.033,-0.031 0.076,-0.08 0.128,-0.146c0.053,-0.066 0.086,-0.118 0.102,-0.154c0.016,-0.037 0.022,-0.068 0.018,-0.094c-0.004,-0.026 -0.017,-0.048 -0.038,-0.065c-0.02,-0.016 -0.044,-0.024 -0.072,-0.021c-0.027,0.003 -0.053,0.013 -0.078,0.031c-0.025,0.018 -0.044,0.046 -0.057,0.082l-0.074,-0.011c0.021,-0.06 0.048,-0.104 0.08,-0.131c0.033,-0.028 0.071,-0.043 0.116,-0.045c0.026,-0.003 0.049,-0.002 0.07,0.002c0.021,0.004 0.042,0.013 0.064,0.027c0.022,0.014 0.041,0.036 0.055,0.065c0.014,0.028 0.02,0.063 0.016,0.103c-0.004,0.04 -0.024,0.089 -0.061,0.145c-0.036,0.056 -0.107,0.143 -0.211,0.263l0.281,0l0,0.071l-0.394,-0l-0,-0.016Z" style="fill:#246766;fill-rule:nonzero;"/></g><g transform="matrix(136.442,0,0,136.442,156.703,606.314)"><path d="M0.035,-0.396c0.003,-0.069 0.013,-0.124 0.029,-0.165c0.017,-0.04 0.041,-0.073 0.073,-0.099c0.031,-0.026 0.069,-0.039 0.115,-0.039c0.046,-0 0.085,0.019 0.119,0.056c0.034,0.038 0.056,0.086 0.067,0.143c0.01,0.057 0.013,0.123 0.009,0.197c-0.004,0.074 -0.017,0.135 -0.039,0.182c-0.022,0.047 -0.055,0.079 -0.099,0.098c-0.045,0.018 -0.089,0.016 -0.133,-0.006c-0.044,-0.022 -0.076,-0.052 -0.094,-0.088c-0.018,-0.037 -0.031,-0.075 -0.039,-0.115c-0.008,-0.041 -0.01,-0.095 -0.008,-0.164Zm0.082,-0.024c-0.008,0.072 -0.005,0.135 0.008,0.191c0.013,0.056 0.035,0.096 0.064,0.12c0.03,0.023 0.061,0.028 0.092,0.013c0.031,-0.014 0.054,-0.043 0.069,-0.086c0.014,-0.043 0.021,-0.089 0.021,-0.14c0,-0.051 -0.002,-0.097 -0.006,-0.139c-0.004,-0.042 -0.015,-0.079 -0.035,-0.113c-0.019,-0.034 -0.045,-0.052 -0.078,-0.053c-0.033,-0.001 -0.061,0.015 -0.086,0.049c-0.025,0.034 -0.041,0.086 -0.049,0.158Z" style="fill:#246766;fill-rule:nonzero;"/></g><g transform="matrix(136.442,0,0,136.442,224.924,606.314)"><path d="M0.047,-0.039c0.002,-0.039 0.021,-0.074 0.055,-0.106c0.033,-0.031 0.076,-0.08 0.128,-0.146c0.053,-0.066 0.086,-0.118 0.102,-0.154c0.016,-0.037 0.022,-0.068 0.018,-0.094c-0.004,-0.026 -0.017,-0.048 -0.038,-0.065c-0.02,-0.016 -0.044,-0.024 -0.072,-0.021c-0.027,0.003 -0.053,0.013 -0.078,0.031c-0.025,0.018 -0.044,0.046 -0.057,0.082l-0.074,-0.011c0.021,-0.06 0.048,-0.104 0.08,-0.131c0.033,-0.028 0.071,-0.043 0.116,-0.045c0.026,-0.003 0.049,-0.002 0.07,0.002c0.021,0.004 0.042,0.013 0.064,0.027c0.022,0.014 0.041,0.036 0.055,0.065c0.014,0.028 0.02,0.063 0.016,0.103c-0.004,0.04 -0.024,0.089 -0.061,0.145c-0.036,0.056 -0.107,0.143 -0.211,0.263l0.281,0l0,0.071l-0.394,-0l-0,-0.016Z" style="fill:#246766;fill-rule:nonzero;"/></g><g transform="matrix(136.442,0,0,136.442,293.145,606.314)"><path d="M0.086,-0.207c0.018,0.07 0.049,0.109 0.094,0.117c0.044,0.008 0.08,0.003 0.107,-0.014c0.027,-0.016 0.047,-0.039 0.059,-0.066c0.011,-0.027 0.017,-0.058 0.015,-0.092c-0.001,-0.034 -0.01,-0.062 -0.027,-0.086c-0.017,-0.023 -0.038,-0.039 -0.064,-0.047c-0.027,-0.007 -0.056,-0.007 -0.088,0c-0.033,0.008 -0.06,0.027 -0.08,0.055l-0.067,-0.008c0.005,-0.015 0.03,-0.127 0.074,-0.336l0.309,0l-0,0.071l-0.25,-0c-0.013,0.07 -0.026,0.126 -0.039,0.168c0.039,-0.019 0.075,-0.027 0.109,-0.026c0.034,0.002 0.067,0.009 0.098,0.024c0.031,0.014 0.054,0.034 0.068,0.058c0.015,0.025 0.025,0.05 0.032,0.075c0.006,0.024 0.009,0.051 0.007,0.08c-0.001,0.028 -0.007,0.058 -0.017,0.088c-0.011,0.029 -0.026,0.054 -0.047,0.074c-0.021,0.019 -0.046,0.035 -0.076,0.047c-0.03,0.011 -0.065,0.016 -0.104,0.013c-0.039,-0.002 -0.076,-0.017 -0.111,-0.043c-0.035,-0.026 -0.059,-0.07 -0.072,-0.133l0.07,-0.019Z" style="fill:#246766;fill-rule:nonzero;"/></g><g transform="matrix(136.442,0,0,136.442,361.365,606.314)"><rect x="0.078" y="-0.105" width="0.09" height="0.086" style="fill:#246766;fill-rule:nonzero;"/></g><g transform="matrix(136.442,0,0,136.442,429.586,606.314)"><path d="M0.219,-0.563c-0.034,0.034 -0.077,0.067 -0.129,0.098l-0,-0.074c0.065,-0.044 0.118,-0.096 0.16,-0.156l0.047,-0l-0,0.672l-0.078,-0l-0,-0.54Z" style="fill:#246766;fill-rule:nonzero;"/></g><g transform="matrix(136.442,0,0,136.442,497.807,606.314)"><path d="M0.047,-0.039c0.002,-0.039 0.021,-0.074 0.055,-0.106c0.033,-0.031 0.076,-0.08 0.128,-0.146c0.053,-0.066 0.086,-0.118 0.102,-0.154c0.016,-0.037 0.022,-0.068 0.018,-0.094c-0.004,-0.026 -0.017,-0.048 -0.038,-0.065c-0.02,-0.016 -0.044,-0.024 -0.072,-0.021c-0.027,0.003 -0.053,0.013 -0.078,0.031c-0.025,0.018 -0.044,0.046 -0.057,0.082l-0.074,-0.011c0.021,-0.06 0.048,-0.104 0.08,-0.131c0.033,-0.028 0.071,-0.043 0.116,-0.045c0.026,-0.003 0.049,-0.002 0.07,0.002c0.021,0.004 0.042,0.013 0.064,0.027c0.022,0.014 0.041,0.036 0.055,0.065c0.014,0.028 0.02,0.063 0.016,0.103c-0.004,0.04 -0.024,0.089 -0.061,0.145c-0.036,0.056 -0.107,0.143 -0.211,0.263l0.281,0l0,0.071l-0.394,-0l-0,-0.016Z" style="fill:#246766;fill-rule:nonzero;"/></g><g transform="matrix(136.442,0,0,136.442,566.028,606.314)"><rect x="0.078" y="-0.105" width="0.09" height="0.086" style="fill:#246766;fill-rule:nonzero;"/></g><g transform="matrix(136.442,0,0,136.442,634.249,606.314)"><path d="M0.047,-0.039c0.002,-0.039 0.021,-0.074 0.055,-0.106c0.033,-0.031 0.076,-0.08 0.128,-0.146c0.053,-0.066 0.086,-0.118 0.102,-0.154c0.016,-0.037 0.022,-0.068 0.018,-0.094c-0.004,-0.026 -0.017,-0.048 -0.038,-0.065c-0.02,-0.016 -0.044,-0.024 -0.072,-0.021c-0.027,0.003 -0.053,0.013 -0.078,0.031c-0.025,0.018 -0.044,0.046 -0.057,0.082l-0.074,-0.011c0.021,-0.06 0.048,-0.104 0.08,-0.131c0.033,-0.028 0.071,-0.043 0.116,-0.045c0.026,-0.003 0.049,-0.002 0.07,0.002c0.021,0.004 0.042,0.013 0.064,0.027c0.022,0.014 0.041,0.036 0.055,0.065c0.014,0.028 0.02,0.063 0.016,0.103c-0.004,0.04 -0.024,0.089 -0.061,0.145c-0.036,0.056 -0.107,0.143 -0.211,0.263l0.281,0l0,0.071l-0.394,-0l-0,-0.016Z" style="fill:#246766;fill-rule:nonzero;"/></g><g transform="matrix(136.442,0,0,136.442,702.469,606.314)"><path d="M0.039,-0.191l0.07,-0.012c0.011,0.034 0.028,0.062 0.051,0.084c0.024,0.022 0.053,0.032 0.088,0.031c0.035,-0.001 0.063,-0.016 0.084,-0.043c0.021,-0.027 0.03,-0.058 0.027,-0.094c-0.002,-0.035 -0.016,-0.062 -0.041,-0.082c-0.024,-0.019 -0.064,-0.033 -0.119,-0.041l0,-0.05c0.055,-0.006 0.095,-0.02 0.119,-0.043c0.025,-0.024 0.036,-0.054 0.034,-0.092c-0.003,-0.038 -0.02,-0.065 -0.051,-0.082c-0.031,-0.017 -0.065,-0.019 -0.1,-0.006c-0.035,0.013 -0.063,0.049 -0.084,0.109l-0.07,-0.011c0.015,-0.047 0.037,-0.086 0.064,-0.118c0.028,-0.031 0.065,-0.049 0.112,-0.054c0.047,-0.006 0.088,0 0.123,0.017c0.035,0.017 0.06,0.043 0.074,0.078c0.014,0.036 0.016,0.074 0.006,0.116c-0.011,0.041 -0.041,0.078 -0.09,0.109c0.036,0.016 0.064,0.039 0.084,0.07c0.019,0.032 0.026,0.073 0.019,0.123c-0.006,0.051 -0.029,0.092 -0.068,0.123c-0.039,0.032 -0.083,0.047 -0.133,0.045c-0.049,-0.001 -0.092,-0.017 -0.129,-0.047c-0.036,-0.029 -0.06,-0.073 -0.07,-0.13Z" style="fill:#246766;fill-rule:nonzero;"/></g></g></g></svg>