<?xml version="1.0" encoding="UTF-8" standalone="no"?><!DOCTYPE svg PUBLIC "-//W3C//DTD SVG 1.1//EN" "http://www.w3.org/Graphics/SVG/1.1/DTD/svg11.dtd"><svg width="2267px" height="2267px" version="1.1" xmlns="http://www.w3.org/2000/svg" xmlns:xlink="http://www.w3.org/1999/xlink" xml:space="preserve" xmlns:serif="http://www.serif.com/" style="fill-rule:evenodd;clip-rule:evenodd;stroke-linejoin:round;stroke-miterlimit:2;"><g><path id="第1页" d="M209.764,1873.76l0,-1423.88c0,0 157.993,-16.786 233.391,-11.125c96.14,7.217 265.971,28.303 343.448,54.429c113.01,38.108 334.609,174.219 334.609,174.219c-0,0 125.356,-83.978 227.569,-120.096c102.213,-36.118 268.074,-80.374 385.711,-96.612c90.74,-12.525 320.109,-0.815 320.109,-0.815l0,1421.7c0,0 -7.171,-2.936 -17.101,-5.765c-4.489,-1.279 -9.542,-2.535 -14.751,-3.489c-26.842,-4.914 -82.638,-16.065 -129.2,-20.228c-22.66,-2.026 -121.549,-6.715 -150.171,-4.751c-58.746,4.033 -155.661,19.199 -202.308,28.945c-55.435,11.582 -97.342,27.009 -130.303,40.55c-45.277,18.6 -102.039,47.355 -141.36,71.05c-40.642,24.491 -102.494,75.898 -102.494,75.898l0,-2.824c0,-0 57.906,-54.716 97.861,-80.613c38.47,-24.934 96.016,-55.621 141.867,-74.767c32.086,-13.398 76.934,-28.583 133.242,-40.11c47.779,-9.78 145.568,-25.002 204.607,-29.048c28.687,-1.966 127.044,2.743 149.623,4.772c46.377,4.167 101.888,15.317 128.636,20.231c5.201,0.955 10.257,2.215 14.751,3.497l0,-1394.62c-54.545,-2.529 -225.207,-9.296 -300.349,1.033c-116.933,16.074 -281.49,60.026 -384.147,96.248c-93.753,33.08 -209.592,106.727 -228.98,119.252l0,1371.95l-5.624,-0l-0,-1371.83c-26.177,-15.866 -228.623,-137.637 -334.534,-173.318c-77.3,-26.043 -247.185,-47.054 -342.868,-54.137c-59.878,-4.432 -171.546,5.634 -214.133,9.872l0,1397.73c4.495,-1.281 9.551,-2.541 14.751,-3.496c26.748,-4.915 82.26,-16.064 128.636,-20.231c22.58,-2.029 120.936,-6.738 149.624,-4.772c59.038,4.046 156.828,19.268 204.607,29.048c56.308,11.527 101.155,26.712 133.241,40.11c45.852,19.146 103.397,49.832 141.868,74.767c39.954,25.897 97.86,80.612 97.86,80.612l0,2.824c0,0 -61.851,-51.406 -102.494,-75.898c-39.32,-23.694 -96.083,-52.45 -141.36,-71.05c-32.96,-13.54 -74.867,-28.967 -130.303,-40.549c-46.647,-9.746 -143.561,-24.912 -202.308,-28.945c-28.622,-1.964 -127.51,2.725 -150.17,4.751c-46.562,4.163 -102.359,15.314 -129.201,20.228c-5.209,0.953 -10.262,2.21 -14.751,3.489c-9.93,2.829 -17.101,5.765 -17.101,5.765Z" style="fill:#b7191a;"/><path id="左2页" d="M138.167,1972.02l0,-1425.15l-0.009,-0.009c-0,-0 19.199,-6.455 28.049,-11.274c9.4,-5.119 21.09,-13.443 28.35,-19.439c5.774,-4.77 15.207,-16.538 15.207,-16.538l0,13.564c0,0 -5.399,7.535 -8.973,10.397c-6.501,5.206 -20.913,15.673 -30.032,20.84c-7.741,4.385 -24.682,10.158 -24.682,10.158l-0.172,1404.28c18.617,-6.487 66.791,-22.986 97.43,-30.901c34.006,-8.784 82.61,-19.87 126.636,-26.268c28.654,-4.163 91.688,-10.938 137.519,-12.115c45.831,-1.176 113.452,3.043 137.465,5.059c40.529,3.402 79.766,10.193 105.706,15.357c36.007,7.167 80.84,18.41 110.338,27.646c31.983,10.014 57.026,21.622 81.562,32.441c24.595,10.845 48.082,21.746 66.01,32.628c23.037,13.983 72.211,51.27 72.211,51.27l1.101,5.008c0,-0 -42.321,-28.948 -65.12,-41.498c-20.478,-11.273 -45.418,-23.167 -71.672,-33.802c-24.714,-10.011 -53.259,-20.313 -85.851,-30.008c-31.606,-9.402 -74.255,-21.244 -109.703,-28.162c-23.095,-4.507 -62.449,-9.996 -102.988,-13.349c-29.922,-2.475 -94.231,-7.523 -140.249,-6.768c-46.018,0.755 -107.834,7.399 -135.86,11.296c-43.934,6.111 -93.64,16.881 -127.745,25.368c-38.713,9.633 -104.537,32.432 -104.537,32.432l0.009,-2.468Z" style="fill:#b7191a;"/><path id="右2页" d="M2127.73,1969.01l0,-1425.15l0.009,-0.009c0,0 -19.199,-6.455 -28.049,-11.274c-9.399,-5.119 -20.834,-13.165 -28.349,-19.439c-6.329,-5.284 -16.742,-18.206 -16.742,-18.206l0,13.456c0,-0 6.351,8.788 10.507,12.173c6.756,5.502 20.913,15.674 30.032,20.84c7.741,4.386 24.682,10.158 24.682,10.158l0.172,1404.28c-18.616,-6.486 -66.791,-22.986 -97.429,-30.9c-34.006,-8.785 -82.611,-19.871 -126.637,-26.268c-28.654,-4.164 -91.688,-10.939 -137.519,-12.115c-45.831,-1.176 -113.452,3.042 -137.465,5.058c-40.529,3.403 -79.766,10.194 -105.706,15.357c-36.007,7.167 -80.84,18.41 -110.338,27.646c-31.983,10.015 -57.026,21.623 -81.562,32.441c-24.595,10.845 -48.082,21.747 -66.01,32.629c-23.037,13.983 -72.211,51.27 -72.211,51.27l-1.101,5.007c-0,0 42.321,-28.948 65.12,-41.498c20.478,-11.273 45.418,-23.166 71.672,-33.801c24.714,-10.012 53.259,-20.314 85.851,-30.009c31.606,-9.402 74.255,-21.243 109.703,-28.162c23.095,-4.507 62.449,-9.996 102.988,-13.349c29.922,-2.474 94.231,-7.523 140.249,-6.768c46.018,0.755 107.834,7.399 135.86,11.297c43.934,6.11 93.64,16.88 127.745,25.367c38.714,9.633 104.537,32.433 104.537,32.433l-0.009,-2.469Z" style="fill:#b7191a;"/><path id="尾页" d="M84.831,603.449c-0,-0 11.501,-2.079 17.078,-3.779c6.041,-1.841 13.128,-4.63 19.17,-7.267c5.835,-2.548 17.079,-8.557 17.079,-8.557l-0,12.005c-0,-0 -10.585,4.067 -15.874,6.111c-5.794,2.238 -12.646,5.289 -18.888,7.32c-1.505,0.49 -3.401,1.034 -5.404,1.578l0,1458.41c25.131,-13.216 80.245,-41.688 111.772,-54.075c41.09,-16.143 83.219,-28.435 125.671,-37.408c53.934,-11.401 136.435,-26.699 197.937,-30.998c56.954,-3.981 116.86,1.208 171.074,5.203c51.556,3.798 109.303,9.047 154.213,18.765c39.242,8.493 79.331,23.555 115.244,39.546c34.504,15.363 100.234,56.4 100.234,56.4l115.617,-1.695c-0,-0 96.005,-56.297 146.754,-74.328c51.764,-18.392 108.483,-32.068 163.833,-36.025c81.966,-5.859 235.587,-9.448 327.964,0.871c76.845,8.585 167.199,40.39 226.296,61.046c32.677,11.422 87.114,40.307 113.306,54.609l-0,-1459.57c-5.315,-0.951 -10.897,-2.022 -14.629,-2.932c-8.665,-2.113 -25.537,-7.993 -25.537,-7.993l0,-11.663c0,0 17.476,7.564 26.652,9.963c9.191,2.402 28.493,4.453 28.493,4.453l-0,1489.91c-0,0 -5.021,-1.15 -13.883,-3.163l-1.096,0l-0,-0.249c-53.623,-12.173 -236.897,-53.414 -313.727,-66.001c-71.026,-11.636 -145.632,-18.175 -214.314,-19.548c-65.986,-1.32 -135.056,2.21 -197.777,11.307c-60.213,8.733 -136.831,28.791 -178.552,43.274c-25.614,8.892 -71.775,43.626 -71.775,43.626l-117.912,1.657c0,-0 -75.724,-44.807 -115.839,-58.885c-43.126,-15.136 -94.673,-27.328 -142.92,-31.927c-68.166,-6.497 -184.436,-11.289 -266.075,-7.055c-75.016,3.891 -169.842,24.199 -223.757,32.462c-33.307,5.104 -66.921,8.306 -99.735,17.114c-40.071,10.757 -140.693,47.428 -140.693,47.428l-0,-1499.95Z" style="fill:#b7191a;"/></g><g><g><path d="M2238.11,701.186c-36.698,43.929 -78.68,71.784 -128.308,85.16c-22.826,6.162 -45.78,12.052 -68.687,17.942l-12.818,3.289c-16.537,4.262 -33.058,8.588 -49.596,12.913c-39.539,10.392 -80.451,21.119 -120.948,30.601c-76.94,18.006 -137.534,40.513 -190.673,70.826c-90.412,51.575 -141.636,120.054 -156.593,209.381c-15.883,94.946 -1.421,190.482 42.971,283.943c32.612,68.623 80.308,129.329 126.472,188.039l11.126,14.191c-0.16,-0.415 -0.352,-0.846 -0.543,-1.245c-15.372,-33.873 -26.53,-71.912 -35.102,-119.688c-14.095,-78.552 -7.662,-149.426 19.65,-216.74c22.108,-54.464 57.609,-95.36 105.529,-121.507l4.453,-2.442c16.697,-9.131 33.937,-18.581 52.262,-24.295l2.059,-0.655c61.424,-19.139 124.923,-38.933 188.422,-54.528c37.034,-9.099 70.427,-23.705 102.081,-44.679c56.38,-37.353 90.317,-81.745 103.709,-135.714c16.234,-65.447 24.247,-137.039 24.407,-218.465l-19.873,23.673Zm-538.339,937.292c-1.468,-0.878 -2.698,-1.517 -3.751,-2.059c-2.219,-1.15 -4.15,-2.155 -5.651,-4.071l-18.101,-23.066c-46.452,-59.109 -94.531,-120.246 -127.605,-189.859c-45.254,-95.313 -60.004,-192.796 -43.786,-289.721c15.5,-92.392 68.272,-163.138 161.366,-216.229c53.986,-30.792 115.394,-53.635 193.275,-71.864c40.401,-9.45 81.234,-20.161 120.741,-30.521c16.537,-4.341 33.059,-8.683 49.596,-12.945l12.818,-3.288c22.906,-5.875 45.797,-11.765 68.575,-17.895c47.649,-12.849 88.018,-39.667 123.391,-82.015l36.922,-43.961l0.111,13.201c0.703,87.778 -7.358,164.351 -24.646,234.139c-14.015,56.444 -49.276,102.719 -107.779,141.477c-32.612,21.597 -66.979,36.65 -105.13,46.02c-63.228,15.531 -126.599,35.277 -187.848,54.368l-2.091,0.655c-17.399,5.427 -34.208,14.637 -50.442,23.529l-4.469,2.458c-46.563,25.396 -79.654,63.547 -101.187,116.639c-26.61,65.542 -32.851,134.676 -19.123,211.36c8.444,46.962 19.394,84.251 34.399,117.357c1.82,3.959 3.24,8.077 4.869,12.898c0.782,2.331 1.628,4.837 2.633,7.566l4.614,12.85l-11.701,-7.023Z" style="fill:#9a0004;fill-rule:nonzero;"/><path d="M1699.77,1638.48c-5.223,-3.026 -7.363,-3.504 -9.422,-6.114c-40.149,-50.917 -74.649,-93.754 -104.354,-139.142c-19.863,-30.349 -47.793,-76.917 -68.109,-138.649c-16.836,-51.157 -34.027,-129.827 -18.251,-225.08c18.748,-113.201 91.955,-185.891 198.368,-236.86c71.706,-34.345 141.744,-49.481 172.144,-56.861c53.934,-13.095 98.555,-25.556 167.869,-43.477c6.765,-1.749 63.424,-16.363 75.081,-19.901c56.172,-17.053 91.974,-51.649 115.204,-79.412l36.856,-44.017c1.533,-1.827 4.523,-1.303 5.355,0.92c0.03,0.082 0.192,0.514 0.199,1.072c0.708,53.561 0.553,147.505 -24.244,248.221c-11.093,45.055 -39.192,98.917 -113.783,146.796c-50.189,32.216 -92.514,41.294 -110.508,45.838c-59.704,15.075 -119.397,33.696 -178.729,52.148c-14.069,4.376 -24.35,8.837 -48.801,22.143c-17.98,9.785 -58.775,30.468 -90.528,84.208c-16.707,28.276 -30.661,65.964 -37.793,104.288c-11.919,64.039 -4.283,120.729 5.528,167.383c12.048,57.291 26.319,85.159 29.734,94.182c2.015,5.325 2.645,8.022 5.563,16.382c4.454,12.761 4.782,12.978 4.386,13.091c-0.035,0.01 -0.062,0.013 -0.232,-0.08l-0.008,0.007c-0.002,-0.005 -0.004,-0.009 -0.006,-0.014c-0.575,-0.317 -2.697,-1.664 -11.519,-7.072l11.345,6.6c-3.908,-10.559 -4.035,-10.694 -7.893,-21.633c-3.79,-10.748 -4.375,-10.509 -9.276,-22.017c-5.07,-11.907 -19.725,-46.989 -31.026,-108.093c-16.272,-87.981 -3.783,-156.643 18.647,-212.345c33.149,-82.32 88.712,-110.337 109.36,-121.688c16.417,-9.025 31.555,-17.033 48.066,-22.225c125.12,-39.351 165.085,-48.746 191.962,-55.471c25.173,-6.299 71.473,-20.491 121.634,-58.716c60.096,-45.796 79.107,-93.422 87.399,-127.047c6.576,-26.672 13.873,-62.494 18.758,-108.195c5.948,-55.646 5.913,-103.98 5.739,-128.143c-31.246,37.101 -31.422,37.4 -35.721,42.326c-30.715,35.197 -69.354,64.062 -120.793,77.807c-44.123,11.79 -44.253,11.282 -131.073,33.891c-86.91,22.632 -97.099,24.643 -126.305,31.565c-54.674,12.959 -129.167,34.658 -198.136,76.233c-100.705,60.706 -138.506,136.601 -150.716,210.848c-9.45,57.462 -16.207,162.369 44.626,289.433c33.353,69.664 81.855,131.158 125.971,187.618c17.92,22.935 17.779,23.068 19.248,24.389c1.954,1.754 3.398,2.061 8.184,4.863Zm538.34,-937.293c19.491,-23.699 19.513,-24.423 20.114,-23.927c0.074,0.06 0.129,0.159 0.13,0.257c1.104,100.49 -11.952,168.457 -14.682,182.986c-1.821,9.686 -6.436,32.727 -10.405,46.224c-9.545,32.465 -33.323,85.022 -108.965,132.783c-47.416,29.939 -87.178,38.487 -104.489,42.885c-51.811,13.161 -99.708,27.45 -179.275,52.241c-17.506,5.455 -29.248,11.275 -53.639,24.607c-18.559,10.144 -70.269,37.477 -103.915,111.403c-14.426,31.697 -21.276,62.103 -22.53,67.669c-16.716,74.196 -6.201,138.677 2.821,181.341c3.154,14.915 12.059,55.731 30.061,95.269c0.442,0.972 1.27,2.396 0.495,3.94c-1.005,2.001 -3.82,2.3 -5.217,0.522c-11.745,-14.95 -24.159,-30.891 -26.254,-33.582c-57.209,-73.466 -101.36,-135.451 -130.718,-215.842c-16.129,-44.164 -41.765,-131.504 -22.97,-240.049c18.838,-108.8 90.038,-179.189 195.203,-228.647c70.264,-33.045 138.765,-47.526 168.86,-54.697c53.176,-12.671 90.124,-22.929 168.247,-42.795c71.564,-18.198 75.693,-19.675 81.341,-21.516c55.114,-17.962 91.394,-52.13 115.786,-81.071l0.001,-0.001Z" style="fill:#9a0004;"/><path d="M2218.13,986.159c-8.827,8.939 -17.67,17.894 -26.338,27.008c-60.179,63.324 -133.782,100.996 -218.735,112.01c-54.784,7.119 -100.613,20.592 -140.152,41.247c-97.372,50.889 -149.075,129.649 -153.624,234.076c-3.815,87.97 18.596,173.641 66.596,254.635c25.141,42.413 59.525,79.861 102.448,111.563c-2.682,-5.587 -5.395,-11.158 -8.077,-16.745c-12.004,-24.742 -24.391,-50.314 -35.134,-76.142c-26.53,-63.674 -30.409,-123.279 -11.844,-182.197c10.647,-33.824 32.181,-57.385 63.994,-70.044c30.457,-12.131 57.481,-21.166 82.559,-27.663c46.147,-11.892 85.08,-26.562 119.08,-44.807c39.556,-21.23 87.795,-52.74 110.11,-108.274c33.075,-82.495 50.985,-161.366 54.768,-241.147c0.272,-5.635 -0.08,-11.381 -0.431,-17.463c-0.032,-0.431 -0.064,-0.83 -0.096,-1.261l-5.124,5.204Zm-360.1,799.295c-51.24,-34.655 -91.769,-76.828 -120.517,-125.339c-48.99,-82.654 -71.864,-170.145 -67.953,-260.046c4.725,-108.131 58.168,-189.652 158.844,-242.28c40.561,-21.183 87.443,-35.006 143.408,-42.253c82.686,-10.727 154.342,-47.409 212.925,-109.073c8.715,-9.162 17.59,-18.165 26.466,-27.152l8.093,-8.173c1.245,-1.261 2.633,-1.628 4.102,-1.995c0.67,-0.176 1.628,-0.431 2.937,-0.815l6.018,-1.851l0.255,6.321c0.096,3.017 0.288,5.954 0.447,8.827c0.384,6.353 0.735,12.355 0.447,18.517c-3.831,80.882 -21.964,160.791 -55.47,244.307c-23.465,58.44 -73.523,91.211 -114.515,113.239c-34.703,18.613 -74.37,33.554 -121.252,45.653c-24.71,6.369 -51.336,15.292 -81.425,27.264c-28.941,11.541 -48.559,33.043 -58.28,63.93c-17.846,56.652 -14.063,114.053 11.509,175.525c10.663,25.572 23.002,51.049 34.91,75.647c5.428,11.206 10.871,22.395 16.155,33.649l7.55,16.042l-14.654,-9.944Z" style="fill:#9a0004;fill-rule:nonzero;"/><path d="M1858.03,1785.45c-26.538,-18.017 -80.324,-57.072 -120.942,-125.087c-54.308,-90.941 -72.34,-180.742 -68.724,-261.623c4.834,-108.147 58.482,-189.842 159.091,-242.768c56.616,-29.783 114.337,-38.854 145.004,-42.985c108.542,-14.619 174.696,-71.297 210.103,-108.599c11.14,-11.735 22.021,-22.76 34.541,-35.449c2.375,-2.406 4.939,-2.553 8.338,-3.601c6.059,-1.868 6.051,-1.905 6.499,-1.965c1.742,-0.233 3.45,1.088 3.541,2.973c0.27,5.582 0.152,5.586 0.873,17.458c0.615,10.099 0.616,13.591 -0.273,27.908c-5.213,84.053 -25.506,161.043 -54.668,234.093c-23.115,57.901 -72.15,92.042 -118.547,116.589c-56.022,29.637 -111.002,42.221 -128.308,46.983c-3.525,0.97 -30.685,8.164 -72.38,24.575c-43.859,17.263 -54.637,53.7 -59.528,71.357c-20.041,72.341 0.021,132.549 15.007,168.873c14.768,35.797 33.165,72.697 46.919,102.855c8.013,17.569 8.399,17.465 8.366,18.333c-0.004,0.1 -0.069,0.192 -0.165,0.221c-0.054,0.016 -0.095,0.021 -0.309,-0.107l-0.031,0.026c-0.01,-0.02 -0.02,-0.041 -0.032,-0.064c-0.792,-0.493 -3.538,-2.475 -14.375,-9.996l13.979,9.177c-2.122,-4.384 -10.129,-20.921 -12.413,-25.55c-20.539,-41.621 -43.714,-86.619 -54.758,-117.694c-16.084,-45.26 -23.661,-98.367 -5.313,-157.809c14.041,-45.485 45.804,-60.64 61.39,-66.893c49.607,-19.903 75.892,-25.749 91.185,-29.956c53.8,-14.8 94.423,-32.554 130.189,-54.093c34.57,-20.819 72.884,-51.183 92.361,-99.546c33.445,-83.048 51.66,-162.456 55.658,-243.095c0.435,-8.784 -0.412,-14.6 -0.919,-29.333c-2.863,0.85 -2.851,0.882 -5.745,1.626c-1.157,0.298 -1.679,0.563 -2.158,1.045c-29.055,29.201 -28.877,29.374 -37.356,38.085c-76.049,78.127 -158.352,99.644 -212.003,106.533c-63.949,8.212 -110.457,23.778 -150.899,45.988c-129.241,70.979 -148.566,177.24 -150.666,242.483c-1.799,55.887 5.344,148.234 67.373,253.442c37.25,63.179 86.531,102.674 120.095,125.59Zm360.099,-799.295l5.111,-5.298c0.513,0.266 0.157,0.448 0.226,1.347c0.964,12.581 0.795,16.115 0.282,26.846c-4.118,85.975 -25.038,154.983 -35.363,186.517c-1.243,3.799 -8.114,24.784 -16.97,46.989c-19.963,50.053 -61.307,83.868 -114.786,111.98c-54.645,28.724 -106.84,40.518 -125.265,45.652c-11.955,3.33 -36.855,10.668 -72.687,24.917c-47.961,19.073 -59.667,58.535 -64.909,77.823c-19.316,71.077 -1.76,130.821 15.439,172.005c12.263,29.365 26.147,57.44 40.936,88.306c0.098,0.205 1.116,2.33 1.189,2.583c0.688,2.373 -1.594,4.601 -3.95,3.858c-0.494,-0.156 -0.583,-0.176 -4.94,-3.486c-65.013,-49.387 -94.121,-100.059 -108.188,-125.949c-24.365,-44.841 -62.555,-129.821 -57.001,-241.07c3.312,-66.364 27.446,-168.194 155.992,-234.371c53.914,-27.755 108.616,-36.46 140.694,-40.605c110.89,-14.33 179.701,-71.402 217.771,-111.113c9.007,-9.395 15.632,-16.068 26.419,-26.931c-18.352,18.71 -18.301,18.754 -27.666,28.57c-78.2,81.965 -163.329,104.063 -217.296,111.295c-69.412,9.301 -120.222,27.682 -165.716,56.597c-119.458,75.928 -127.422,184.455 -126.38,243.551c0.916,51.969 11.51,134.195 67.195,227.545c30.283,50.767 67.762,83.968 91.506,102.543c-18.283,-37.597 -35.594,-73.124 -45.244,-100.61c-15.785,-44.956 -24.841,-101.252 -4.764,-165.143c8.369,-26.632 26.121,-56.489 66.085,-72.476c50.834,-20.334 79.812,-26.935 92.582,-30.416c58.312,-15.895 96.025,-34.023 124.76,-50.703c31.76,-18.436 73.043,-47.983 93.157,-97.157c41.012,-100.27 53.361,-179.458 57.082,-240.092c0.411,-6.705 -0.086,-14.884 -0.268,-18.473l-5.033,4.969Z" style="fill:#9a0004;"/></g><g><path d="M1217.38,257.344c-50.362,1.341 -100.772,0.83 -150.352,1.054l-10.232,0.063c-20.576,0.112 -41.135,0.24 -61.711,0.096c-44.041,-0.271 -84.873,-14.222 -124.923,-42.636l-19.922,-14.111c17.703,66.357 39.667,123.088 67.011,173.131c22.667,41.518 60.211,70.714 114.723,89.278c30.649,10.424 61.664,14.941 93.813,14.734c56.188,-0.91 112.791,1.676 167.719,4.166l1.66,0.08c16.345,0.734 32.547,4.757 48.207,8.668l4.565,1.133c45.445,11.253 83.82,37.416 114.005,77.754c37.241,49.851 57.992,107.141 63.387,175.173c3.129,39.38 2.395,71.976 -2.298,102.113l3.815,-8.843c25.396,-58.471 51.623,-118.954 63.643,-182.644c16.393,-86.709 7.63,-168.613 -26.035,-243.478c-31.654,-70.331 -88.689,-115.665 -174.36,-138.619c-44.136,-11.812 -91.705,-17.447 -148.117,-17.447c-8.013,-0 -16.202,0.112 -24.598,0.335m294.079,605.525c0.319,-4.421 0.59,-8.205 1.229,-11.908c5.204,-30.6 6.161,-63.723 2.921,-104.284c-5.236,-66.133 -25.349,-121.778 -61.456,-170.081c-29.211,-39.045 -64.728,-63.308 -108.546,-74.146l-4.565,-1.15c-15.228,-3.767 -30.951,-7.694 -46.307,-8.38l-1.66,-0.08c-54.816,-2.49 -111.611,-5.076 -167.129,-4.166c-33.042,0.527 -65.415,-4.438 -97.116,-15.244c-56.939,-19.395 -96.223,-50.075 -120.103,-93.812c-29.483,-53.986 -52.804,-115.554 -71.273,-188.263l-3.224,-12.786l41.582,29.419c38.342,27.216 77.387,40.577 119.321,40.848c20.528,0.112 41.087,0.016 61.599,-0.096l10.248,-0.064c49.452,-0.271 99.91,0.288 150.129,-1.053c68.607,-1.932 124.204,3.687 175.492,17.447c88.688,23.72 147.798,70.842 180.697,144.015c34.511,76.7 43.53,160.567 26.753,249.271c-12.227,64.777 -38.693,125.754 -64.265,184.72l-9.945,22.938c-0.83,2.043 -2.346,3.416 -3.927,4.852c-0.734,0.671 -1.628,1.469 -2.602,2.475l-9.561,9.865l1.708,-20.337Z" style="fill:#9a0004;fill-rule:nonzero;"/><path d="M1511.46,862.869c0.497,-8.786 0.612,-8.777 1.573,-15.545c2.176,-15.333 6.058,-49.287 0.638,-103.593c-6.591,-66.041 -27.55,-119.123 -61.749,-164.594c-37.643,-50.051 -78.89,-65.935 -107.222,-73.065c-20.029,-5.041 -34.743,-8.699 -50.142,-9.446c-5.324,-0.258 -35.25,-1.71 -66.564,-2.873c-73.368,-2.725 -97.523,-1.23 -112.938,-1.57c-17.099,-0.378 -60.231,-2.424 -111.163,-24.791c-59.375,-26.075 -85.019,-62.361 -98.64,-87.528c-42.984,-79.417 -63.322,-158.529 -73.731,-200.612c-0.564,-2.277 1.811,-4.191 3.898,-3.198c0.501,0.238 0.474,0.285 41.951,29.731c26.155,18.569 65.251,40.192 117.78,40.593c36.077,0.276 57.205,-0.111 109.087,-0.034c63.921,0.095 78.26,0.047 116.028,-0.817c48.216,-1.103 116.614,0.664 185.083,21.478c99.143,30.139 145.056,87.396 169.792,143.417c20.061,45.433 49.436,133.462 23.981,255.625c-12.998,62.384 -39.223,122.144 -63.192,177.09c-9.997,22.917 -9.894,22.971 -10.643,24.18c-1.344,2.171 -3.498,3.591 -5.918,6.077l-9.58,9.848c-0.017,0.018 -0.056,-0.021 -0.073,-0.004l0.006,-0.065l-0.008,-0.004c0.003,-0.003 0.006,-0.006 0.009,-0.009l1.737,-20.291l-1.644,20.194c7.071,-7.321 6.928,-7.516 12.629,-12.798c2.02,-1.872 2.69,-2.86 3.306,-4.29c34.363,-79.771 64.031,-145.336 76.04,-221.193c8.189,-51.726 13.859,-140.132 -29.919,-236.082c-40.191,-88.09 -115.62,-130.991 -212.71,-149.563c-67.223,-12.859 -128.43,-9.751 -156.141,-9.139c-46.613,1.028 -78.801,0.551 -146.274,1.078c-26.357,0.206 -59.164,0.351 -66.591,0.135c-23.889,-0.695 -65.984,-5.855 -114.996,-40.384c-12.12,-8.539 -24.239,-17.081 -36.36,-25.621c9.649,37.876 29.903,114.358 72.024,191.632c13.918,25.535 43.635,69.158 123.517,94.827c47.847,15.375 85.357,13.512 99.384,13.342c52.584,-0.636 108.369,1.812 159.524,4.128c13.859,0.627 24.167,2.301 54.3,9.952c58.217,14.782 94.616,51.066 121.712,93.653c28.713,45.128 38.118,88.023 41.2,102.922c2.539,12.274 6.846,35.182 7.94,74.798c1.4,50.676 -5.07,75.976 -6.174,84.744c-0.309,2.448 -0.544,5.171 -0.767,7.665Zm-294.079,-605.525c37.331,-0.996 111.975,-1.923 185.676,20.354c96.776,29.252 140.171,85.164 163.444,137.628c19.972,45.02 47.636,129.223 24.612,245.997c-12.698,64.402 -39.848,126.045 -62.483,178.645c-3.799,8.829 -3.693,8.898 -4.16,9.403c-1.237,1.338 -3.63,0.38 -3.377,-1.631c0.658,-5.237 5.016,-29.138 3.849,-70.044c-0.086,-3.036 -0.739,-25.783 -3.446,-48.034c-4.915,-40.403 -18.16,-100.098 -62.315,-158.299c-47.018,-61.974 -101.298,-72.979 -119.439,-77.459c-22.508,-5.559 -32.815,-7.248 -46.373,-7.841c-80.977,-3.543 -118.043,-4.584 -167.548,-3.864c-16.78,0.244 -31.88,-1.337 -34.639,-1.626c-10.687,-1.119 -45.76,-4.989 -86.672,-23.483c-55.182,-24.946 -78.758,-59 -91.074,-81.597c-29.852,-54.774 -50.781,-112.915 -66.359,-171.168c-0.046,-0.172 -0.493,-1.843 -0.523,-2.151c-0.254,-2.589 2.254,-4.655 4.745,-3.911c0.092,0.028 0.571,0.171 1.081,0.527c1.963,1.371 21.243,15.192 26.377,18.646c35.57,23.929 73.248,37.579 116.351,38.253c30.727,0.481 64.247,0.357 99.89,0.824c36.389,0.477 81.048,1.182 121.362,0.839c0.001,0.014 0.003,0.026 0.006,0.037c-2.466,0.107 -9.211,0.392 -17.866,0.695c-39.758,1.395 -58.061,1.297 -149.406,2.772c-14.132,0.228 -51.143,0.841 -62.362,0.423c-35.868,-1.336 -75.655,-12.037 -118.679,-42.376l-11.52,-8.127c9.02,32.496 28.863,98.582 64.151,162.909c16.251,29.624 46.954,65.562 114.513,88.036c47.19,15.699 85.855,13.98 101.102,13.871c50.747,-0.36 101.1,1.908 157.345,4.583c15.088,0.718 25.687,2.584 56.056,10.339c70.524,18.011 107.767,67.309 126.388,96.094c43.749,67.628 50.901,135.198 52.798,182.423c1.165,29.011 -0.271,50.257 -2.003,65.255c28.208,-64.758 53.49,-123.842 64.45,-191.14c9.066,-55.672 12.632,-139.438 -27.741,-229.682c-36.594,-81.8 -106.755,-128.024 -211.728,-147.204c-54.071,-9.879 -104.605,-9.567 -134.483,-8.916Zm-0.573,0.025c-0.21,0.072 -0.406,0.128 -0.442,0.02c0.167,-0.007 0.315,-0.014 0.442,-0.02Zm-0,0c0.272,-0.092 0.568,-0.209 0.573,-0.025c-0,0 -0.197,0.009 -0.573,0.025Z" style="fill:#9a0004;"/><path d="M1181.67,508.811c-72.645,9.386 -141.859,-5.826 -205.47,-45.158c-9.179,-5.683 -18.453,-11.174 -27.711,-16.681l-3.911,-2.298c0.974,4.9 1.932,9.545 3.304,13.951c20.416,65.015 52.326,126.248 97.5,187.129c30.329,40.865 76.892,56.38 114.053,65.303c31.254,7.503 65.654,11.158 105.065,11.158c1.549,0.016 3.017,-0.016 4.534,-0.016c21.693,0 45.477,1.628 72.63,4.949c29.243,3.575 52.309,18.484 68.575,44.312c28.206,44.807 37.975,95.041 29.898,153.56c-3.288,23.513 -7.934,47.169 -12.435,70.044c-0.878,4.421 -1.74,8.859 -2.618,13.281c27.583,-34.815 47.217,-72.375 58.519,-111.882c22.044,-77.227 21.965,-152.746 -0.255,-224.45c-26.323,-85.001 -85.943,-138.683 -177.169,-159.546c-21.614,-4.949 -44.504,-7.423 -69.102,-7.423c-17.527,0 -35.948,1.277 -55.407,3.767m230.357,516.215c1.963,-10.631 4.054,-21.231 6.145,-31.846c4.454,-22.731 9.083,-46.243 12.291,-69.485c7.79,-56.156 -1.516,-104.268 -28.477,-147.063c-14.829,-23.545 -34.942,-36.571 -61.52,-39.827c-27.423,-3.368 -51.367,-4.773 -73.06,-4.869c-41.567,0.687 -77.451,-3.559 -110.254,-11.429c-38.773,-9.306 -87.395,-25.556 -119.592,-68.942c-45.828,-61.791 -78.217,-123.934 -98.952,-190.035c-1.612,-5.06 -2.618,-10.12 -3.703,-15.484c-0.447,-2.41 -0.942,-4.852 -1.517,-7.342l-1.388,-6.162l6.337,0.239c1.133,0.048 1.947,0.08 2.57,0.032c1.117,0 2.633,-0.048 4.182,0.846l8.332,4.965c9.338,5.523 18.693,11.046 27.887,16.744c61.663,38.135 128.738,52.837 199.117,43.802c47.856,-6.178 89.726,-4.917 127.925,3.815c94.865,21.693 156.864,77.594 184.288,166.155c22.778,73.539 22.89,150.926 0.303,229.989c-13.233,46.387 -37.608,90.124 -72.47,129.983l-11.669,13.329l3.225,-17.415Z" style="fill:#9a0004;fill-rule:nonzero;"/><path d="M1412.03,1025.03c7.763,-43.513 17.643,-88.974 19.663,-120.802c2.626,-41.372 -4.226,-84.826 -30.935,-126.815c-13.544,-21.292 -32.367,-35.521 -60.497,-38.919c-29.878,-3.609 -53.732,-4.605 -71.846,-4.696c-10.18,-0.052 -51.135,1.607 -101.564,-9.141c-40.996,-8.737 -63.05,-19.465 -67.817,-21.725c-41.767,-19.795 -59.107,-44.97 -67.187,-56.096c-27.357,-37.668 -68.917,-101.455 -94.902,-185.304c-2.328,-7.512 -3.307,-14.61 -5.075,-22.479c-1.358,-6.05 -1.397,-6.04 -1.418,-6.421c-0.048,-0.887 0.693,-1.668 1.609,-1.635c7.75,0.275 7.746,0.301 8.796,0.28c1.118,-0.023 3.207,-0.015 5.002,1.057c24.372,14.542 24.404,14.484 36.951,22.222c85.313,52.619 161.466,47.931 198.586,43.272c64.474,-8.091 112.767,-2.114 156.184,12.221c118.016,38.965 149.431,130.184 161.895,181.472c9.17,37.737 21.568,112.122 -6.56,208.78c-14.384,49.425 -40.438,92.438 -72.398,128.852c-6.521,7.429 -1.881,14.374 -11.712,13.322c-0.007,-0.001 -0.012,-0.003 -0.009,-0.044l-0.015,-0.008c0.006,-0.006 0.012,-0.013 0.018,-0.02c0.044,-0.372 0.496,-2.699 3.231,-17.373l-3.172,17.305c11.182,-12.819 11.282,-12.76 17.187,-19.838c50.004,-59.937 64.435,-113.42 70.787,-139.17c11.234,-45.539 23.474,-124.287 -5.134,-215.025c-18.029,-57.187 -61.698,-137.039 -184.469,-164.506c-52.834,-11.82 -101.619,-6.601 -127.474,-3.313c-90.166,11.469 -157.488,-18.145 -199.223,-43.849c-11.03,-6.794 -12.459,-7.544 -36.208,-21.641c-1.488,-0.883 -3.258,-0.565 -4.882,-0.622c-1.827,-0.065 -3.655,-0.134 -5.482,-0.198c1.314,5.773 1.33,5.766 2.488,11.577c2.014,10.108 2.8,12.929 6.675,24.549c21.816,65.414 54.27,124.162 95.895,180.19c30.737,41.374 77.442,59.054 124.739,69.598c52.197,11.637 94.611,9.89 106.736,10.026c11.785,0.133 36.279,0.757 70.185,5.011c40.709,5.108 57.795,31.664 67.973,49.924c35.092,62.956 25.304,123.246 19.931,155.119c-4.822,28.6 -10.624,54.253 -16.552,84.863Zm15.167,-21.293c17.74,-23.022 41.789,-59.146 55.978,-109.345c13.5,-47.759 28.523,-129.405 -0.724,-223.185c-17.667,-56.648 -60.236,-132.21 -177.33,-158.76c-50.631,-11.481 -97.544,-6.786 -123.456,-3.636c33.601,-4.203 78.374,-7.524 127.762,4.194c125.074,29.677 161.985,115.588 176.548,165.57c12.428,42.651 26.784,119.019 -1.424,218.162c-7.933,27.884 -23.712,68 -57.901,111.519c-0.07,0.089 -0.761,0.969 -0.933,1.079c-0.849,0.543 -1.974,-0.199 -1.779,-1.213c4.383,-22.858 14.095,-69.354 16.577,-98.118c3.529,-40.896 -1.018,-89.492 -31.55,-137.735c-25.42,-40.167 -60.425,-42.73 -73.787,-44.248c-2.952,-0.336 -35.831,-4.28 -66.701,-4.117c-32.815,0.173 -80.033,-1.429 -131.298,-16.922c-31.545,-9.533 -67.987,-25.949 -93.322,-60.089c-36.637,-49.37 -73.684,-111.083 -97.453,-187.802c-1.859,-5.999 -3.32,-14.358 -3.32,-14.365c-0.036,-1.158 1.242,-1.93 2.254,-1.337c3.591,2.105 21.165,12.622 29.858,18.043c22.381,13.955 73.718,44.225 146.899,49.072c27.923,1.849 49.717,-0.518 59.579,-1.689c-43.484,5.869 -120.047,8.378 -205.433,-43.548c-13.835,-8.414 -16.041,-9.685 -29.517,-17.598c1.245,5.971 2.042,9.067 6.126,21.086c18.222,53.633 46.57,111.783 94.062,175.869c28.375,38.287 72.099,55.406 117.342,65.699c50.29,11.44 96.06,10.009 110.964,10.231c8.971,0.134 31.756,0.662 66.647,4.99c46.788,5.803 66.152,38.498 74.75,53.645c31.835,56.086 29.994,110.682 24.331,149.328c-3.493,23.835 -8.289,47.745 -13.749,75.22Z" style="fill:#9a0004;"/></g><g><path d="M616.89,624.199c-1.771,0.032 -3.527,0.048 -5.299,0.048c-64.744,-0 -120.949,-15.149 -171.63,-46.212c-42.141,-25.86 -71.161,-60.993 -86.278,-104.443l-1.468,-4.231c-5.236,-15.004 -10.679,-30.52 -12.946,-47.057c-7.439,-53.826 -15.148,-109.488 -19.363,-164.591c-2.41,-31.813 -9.88,-61.344 -22.826,-90.3c-23.05,-51.607 -54.959,-85.639 -97.532,-104.028c-51.287,-22.172 -108.625,-38.518 -174.95,-49.851l15.404,18.021c31.383,36.555 48.702,75.216 52.932,118.283c1.98,20.049 3.72,40.13 5.459,60.195l0.894,10.136c1.245,14.638 2.618,29.276 3.975,43.929c3.081,33.761 6.289,68.672 8.54,103.103c4.294,66.037 14.526,119.177 32.26,167.208c30.106,81.617 79.542,133.256 151.118,157.838c76.142,26.147 156.976,27.36 240.269,3.528c61.137,-17.479 117.852,-48.574 172.716,-78.632l7.757,-4.246c-28.876,7.231 -60.53,10.823 -99.032,11.302m-324.87,77.259c-74.514,-25.604 -125.881,-79.143 -157.088,-163.681c-18.054,-48.941 -28.477,-102.943 -32.851,-169.954c-2.219,-34.303 -5.427,-69.15 -8.524,-102.831c-1.357,-14.669 -2.714,-29.323 -3.991,-43.993l-0.862,-10.136c-1.74,-20.033 -3.48,-40.066 -5.427,-60.083c-4.055,-40.992 -20.64,-77.913 -50.665,-112.887l-32.612,-38.199l13.01,2.075c72.741,11.509 135.011,28.749 190.401,52.677c44.903,19.41 78.457,55.055 102.56,109.008c13.393,29.978 21.135,60.578 23.657,93.525c4.182,54.784 11.828,110.302 19.33,164.559c2.107,15.004 7.359,30.057 12.435,44.631l1.469,4.23c14.574,41.854 41.455,74.354 82.207,99.319c50.41,30.952 106.072,45.446 171.71,44.759c39.89,-0.494 72.199,-4.389 101.618,-12.259c3.527,-0.926 7.151,-1.548 11.333,-2.219c2.059,-0.351 4.262,-0.702 6.672,-1.149l13.409,-2.458l-8.827,10.391c-0.91,1.054 -1.597,1.98 -2.171,2.762c-1.277,1.692 -2.458,3.304 -4.39,4.358l-21.581,11.78c-55.343,30.313 -112.537,61.664 -174.743,79.462c-40.561,11.589 -80.547,17.383 -119.751,17.383c-43.195,0 -85.416,-7.023 -126.328,-21.07" style="fill:#9a0004;fill-rule:nonzero;"/><path d="M292.02,701.458c-25.048,-7.656 -51.305,-19.489 -76.793,-38.994c-6.393,-4.893 -13.062,-11.055 -14.155,-12.065c-9.355,-8.646 -25.897,-25.261 -42.532,-51.488c-5.82,-9.176 -11.255,-19.673 -12.161,-21.423c-11.504,-22.219 -30.853,-65.438 -42.17,-137.085c-6.103,-38.641 -7.395,-68.717 -9.047,-91.509c-3.252,-44.867 -6.805,-78.391 -11.754,-137.575c-0.433,-5.178 -4.553,-54.447 -5.798,-64.689c-5.791,-47.67 -28.525,-81.793 -48.73,-105.549l-32.533,-38.268c-0.247,-0.293 -1.785,-2.112 -0.87,-4.704c0.128,-0.361 0.917,-2.597 3.621,-3.111c0.13,-0.025 0.825,-0.157 1.655,-0.022c37.059,5.991 118.798,18.401 204.337,55.587c34.485,14.991 76.587,45.349 106.526,116.328c19.332,45.832 20.913,82.164 22.127,97.509c4.04,51.054 10.952,102.893 18.249,156.71c2.116,15.605 8.047,32.147 13.624,48.327c18.971,55.039 57.161,86.701 99.739,108.946c64.082,33.48 126.505,35.967 176.46,33.393c47.473,-2.446 71.835,-10.327 79.591,-11.949c4.436,-0.927 8.96,-1.503 14.71,-2.542c13.341,-2.411 13.342,-2.52 13.922,-2.432c1.18,0.179 1.733,1.613 0.947,2.536c-8.787,10.324 -8.867,10.259 -10.973,13.051c-1.32,1.75 -2.691,3.573 -4.874,4.755c-47.38,25.682 -85.641,46.974 -125.823,64.711c-29.647,13.087 -76.157,31.537 -135.262,39.392c-86.873,11.545 -150.684,-7.095 -182.033,-17.84c37.126,12.452 126.632,38.346 248.761,2.06c62.8,-18.658 120.856,-51.262 171.388,-79.065c21.422,-11.786 21.524,-11.637 22.768,-12.695c1.605,-1.363 2.708,-3.355 4.731,-5.755c2.046,-2.427 4.094,-4.854 6.141,-7.281c-7.143,1.337 -8.54,1.623 -18.109,3.249c-10.418,1.77 -10.641,2.703 -25.84,5.923c-14.499,3.072 -41.715,7.917 -85.059,8.546c-58.681,0.852 -118.75,-10.499 -175.923,-46.354c-37.136,-23.288 -65.315,-54.706 -80.771,-98.725c-5.719,-16.288 -11.889,-33.185 -14.182,-49.396c-11.352,-80.254 -15.887,-116.704 -19.888,-165.478c-1.696,-20.682 -6.93,-62.357 -32.97,-110.578c-29.935,-55.435 -66.652,-77.064 -92.625,-88.132c-75.639,-32.232 -148.911,-45.119 -188.329,-51.337c24.013,27.995 24.373,28.353 27.751,32.43c21.339,25.756 43.658,62.18 48.571,111.399c3.458,34.64 5.179,57.564 9.493,103.227c6.895,72.983 7.412,80.529 9.973,117.075c4.27,60.931 13.832,115.687 33.761,169.145c11.344,30.427 22.2,49.08 27.997,58.76c19.511,32.583 39.819,51.4 53.273,62.741c29.491,24.862 58.387,36.019 69.088,40.241Zm324.871,-77.259c22.261,-0.443 59.105,-1.618 98.272,-11.463c0.638,-0.16 0.636,-0.226 0.849,-0.17c0.298,0.079 0.345,0.489 0.078,0.636c-67.184,37.062 -125.119,69.542 -194.022,87.288c-45.187,11.638 -130.537,26.783 -228.321,-6.817c-86.243,-29.634 -136.068,-96.898 -163.508,-193.255c-17.929,-62.961 -20.594,-121.597 -22.692,-149.157c-3.311,-43.508 -6.57,-73.151 -12.713,-140.916c-1.011,-11.153 -3.191,-36.057 -5.638,-60.135c-5.327,-52.414 -29.616,-89.501 -52.34,-115.965c-15.342,-17.867 -15.408,-17.821 -15.845,-18.541c-1.38,-2.274 -0.26,-5.321 2.267,-6.161c0.94,-0.313 1.871,-0.178 2.032,-0.155c2.605,0.376 12.807,2.235 13.919,2.437c28.009,5.103 95.195,18.261 162.701,47.454c30.662,13.259 72.243,41.103 102.203,111.589c18.775,44.172 20.416,79.162 21.684,94.162c4.315,51.029 11.572,103.205 19.031,156.497c2.358,16.848 7.87,31.962 14.225,50.183c6.571,18.843 22.303,55.633 64.583,88.435c5.066,3.931 19.618,15.292 46.835,29.13c30.452,15.484 55.988,21.948 70.883,25.502c35.707,8.519 65.978,9.136 75.517,9.422c-38.474,2.019 -67.358,-2.235 -80.802,-4.593c-8.536,-1.498 -18.28,-3.99 -19.856,-4.393c-37.507,-9.594 -62.912,-23.629 -69.831,-27.441c-20.991,-11.564 -73.826,-42.336 -98.108,-112.299c-6.213,-17.9 -12.117,-34.187 -14.604,-52.393c-9.389,-68.727 -15.021,-111.761 -19.118,-165.698c-1.482,-19.509 -6.177,-59.517 -30.989,-106.128c-28.302,-53.165 -63.063,-73.652 -87.097,-84.061c-61.823,-26.773 -121.427,-40.074 -161.069,-47.432c8.178,9.601 8.858,10.36 12.095,14.34c30.578,37.593 45.376,75.733 49.161,115.366c3.31,34.658 5.084,59.605 8.997,103.327c7.868,87.905 7.87,94.809 9.618,120.341c3.017,44.06 10.397,109.627 35.833,172.528c37.065,91.66 95.311,128.161 147.311,145.783c44.185,14.974 128.734,35.091 241.023,2.117c61.329,-18.009 118.671,-49.64 173.985,-79.713c-5.564,1.321 -15.872,3.643 -29.881,5.684c-29.537,4.302 -56.484,4.534 -66.668,4.665Z" style="fill:#9a0004;"/><path d="M851.972,506.271c-22.076,6.481 -44.871,13.201 -67.681,18.533c-56.524,13.185 -106.535,8.157 -152.858,-15.372c-26.737,-13.584 -43.386,-34.799 -49.516,-63.1c-5.842,-26.802 -9.609,-50.41 -11.541,-72.167c-3.448,-39.651 -10.184,-73.827 -20.608,-104.459c-12.067,-35.501 -31.398,-79.59 -74.05,-105.529c-63.611,-38.678 -126.28,-64.298 -191.631,-78.377c-4.454,-0.973 -8.987,-1.452 -13.712,-1.963l3.129,4.31c6.002,8.285 11.972,16.553 18.133,24.71c44.169,58.631 65.271,124.828 62.669,196.787c-1.66,46.228 3.177,85.911 14.798,121.316c28.605,87.251 86.405,140.678 171.821,158.732c72.087,15.228 145.866,8.508 219.278,-19.985c37.496,-14.542 72.359,-37.034 103.789,-66.98c-4.007,1.182 -8.029,2.363 -12.02,3.544m-313.058,92.95c-89.056,-18.851 -149.298,-74.433 -179.053,-165.228c-11.972,-36.523 -16.984,-77.307 -15.276,-124.7c2.522,-69.661 -17.926,-133.783 -60.706,-190.578c-6.193,-8.204 -12.227,-16.537 -18.245,-24.853l-6.225,-8.572c-1.022,-1.405 -1.166,-2.81 -1.277,-4.167l-1.022,-8.683l6.241,0.814c2.491,0.319 4.965,0.59 7.359,0.83c5.316,0.575 10.344,1.101 15.452,2.219c66.404,14.286 130.063,40.321 194.6,79.573c45.334,27.568 65.622,73.636 78.249,110.701c10.631,31.382 17.527,66.293 21.086,106.742c1.884,21.326 5.571,44.535 11.318,70.953c5.571,25.652 20.097,44.121 44.424,56.476c44.2,22.46 92.008,27.264 146.217,14.574c22.539,-5.268 45.238,-11.924 67.155,-18.389c10.056,-2.953 20.144,-5.922 30.201,-8.763l17.08,-4.805l-12.211,12.834c-35.805,37.672 -76.366,65.446 -120.55,82.574c-49.085,19.044 -98.298,28.589 -147.143,28.589c-26.035,0 -51.958,-2.713 -77.674,-8.141" style="fill:#9a0004;fill-rule:nonzero;"/><path d="M863.963,502.7l0.056,-0.016c0.046,0.584 -0.307,0.378 -0.729,0.781c-49.241,46.968 -94.702,64.284 -120.111,73.069c-39.732,13.736 -113.766,33.208 -203.529,14.225c-95.542,-20.204 -147.542,-82.742 -172.884,-159.959c-18.895,-57.573 -14.987,-112.049 -14.86,-129.59c0.621,-85.976 -33.382,-147.518 -62.842,-186.417c-6.638,-8.764 -10.436,-14.001 -18.24,-24.703c-3.079,-4.221 -3.131,-4.186 -3.422,-4.768c-1.103,-2.205 0.561,-5.034 3.332,-4.793c3.808,0.331 7.693,0.884 8.36,0.979c0.139,0.019 2.603,0.17 16.471,3.398c63.709,14.829 123.209,40.291 182.183,75.937c41.968,25.367 63.163,68.301 77.431,111.902c15.929,48.676 18.621,94.275 20.07,108.187c0.646,6.198 2.963,28.981 10.498,64.563c3.963,18.715 14.545,43.983 47.184,60.994c43.632,22.742 85.016,25.279 117.509,22.318c10.142,-0.924 19.671,-2.418 28.29,-4.128c23.738,-4.709 64.954,-16.149 73.242,-18.408c-31.013,9.752 -62.01,19.509 -87.039,23.961c-28.453,5.06 -79.73,10.008 -135.641,-18.18c-43.541,-21.951 -49.763,-58.088 -52.581,-71.131c-8.988,-41.608 -10.1,-63.366 -11.585,-77.324c-3.72,-34.956 -10.698,-72.765 -26.493,-112.161c-12.002,-29.938 -30.759,-63.039 -64.945,-83.925c-70.012,-42.775 -132.364,-65.693 -190.312,-78.419c-1.968,-0.433 -3.952,-0.768 -5.864,-1.043c9.311,12.914 10.238,14.148 17.734,24.261c57.11,77.055 63.393,151.148 61.629,197.423c-2.182,57.227 5.246,102.424 23.755,145.943c45.764,107.596 133.47,129.293 182.49,136.762c37.161,5.663 108.533,11.015 197.777,-23.546c52.531,-20.344 87.499,-51.607 102.916,-66.063l-11.841,3.442l11.973,-3.566c0.005,-0.004 0.009,-0.008 0.014,-0.012l0.004,0.007Zm28.168,-16.688c-20.44,5.822 -22.349,6.384 -50.743,14.821c-50.796,15.093 -71.652,19.796 -92.619,22.019c-24.032,2.548 -67.21,3.768 -114.517,-20.418c-33.917,-17.34 -42.083,-43.269 -45.503,-58.88c-9.553,-43.604 -10.893,-66.744 -12.231,-79.338c-3.68,-34.644 -10.981,-76.243 -28.739,-119.018c-12.847,-30.943 -32.781,-64.703 -68.771,-86.44c-75.508,-45.606 -139.663,-67.106 -193.666,-78.658c-6.984,-1.493 -11.093,-1.566 -23.715,-3.087c0.075,0.636 0.558,4.779 0.639,5.133c0.113,0.488 0.345,0.779 0.378,0.824c15.6,21.391 15.587,21.396 25.497,34.645c56.311,75.286 62.262,147.756 60.59,191.823c-1.939,51.084 2.955,102.103 26.133,154.698c16.273,36.927 45.056,81.834 99.752,111.281c28.709,15.456 55.511,21.749 64.298,23.804c-31.123,-6.101 -83.224,-20.641 -127.485,-68.288c-25.609,-27.566 -39.735,-58.803 -41.374,-62.285c-17.589,-37.376 -22.975,-68.933 -24.101,-75.145c-7.796,-43.014 -5.505,-79.875 -5.367,-90.79c0.686,-54.242 -12.273,-117.977 -59.958,-181.553c-7.112,-9.481 -9.558,-12.93 -24.455,-33.551c-1.863,-2.578 -1.895,-5.223 -1.993,-6.086c-1.007,-8.818 -1.043,-8.816 -1.021,-9.273c0.108,-2.201 2.112,-4.017 4.461,-3.725c4.037,0.502 4.026,0.563 8.061,1.055c9.72,1.185 13.204,1.139 22.863,3.267c76.107,16.774 139.852,47.051 193.971,80.148c42.939,26.26 65.256,69.409 80.314,115.602c16.551,50.775 19.071,97.345 20.795,113.547c1.18,11.092 3.754,31.659 10.182,61.606c8.048,37.485 33.946,51.269 52.821,59.707c55.544,24.83 106.304,16.957 138.198,9.44c31.707,-7.473 63.439,-17.503 94.206,-26.074c16.974,-4.728 16.965,-4.851 17.559,-4.803c1.104,0.088 1.643,1.444 0.863,2.261c-1.382,1.448 -13.958,14.623 -17.344,18.033c-54.684,55.065 -106.349,74.136 -131.094,82.668c-85.489,29.477 -157.284,25.422 -208.896,14.487c35.217,7.065 118.28,20.136 224.355,-21.842c42.804,-16.94 82.247,-43.98 117.206,-80.553l10.45,-11.062Z" style="fill:#9a0004;"/></g><g opacity="0.8"><path d="M616.89,624.199c38.502,-0.479 70.156,-4.071 99.032,-11.302l-7.757,4.246c-54.864,30.058 -111.579,61.153 -172.716,78.632c-83.293,23.832 -164.127,22.619 -240.269,-3.528c-71.576,-24.582 -121.012,-76.221 -151.118,-157.838c-17.734,-48.031 -27.966,-101.171 -32.26,-167.208c-2.251,-34.431 -5.459,-69.342 -8.54,-103.103c-1.357,-14.653 -2.73,-29.291 -3.975,-43.929l-0.894,-10.136c-1.739,-20.065 -3.479,-40.146 -5.459,-60.195c-4.23,-43.067 -21.549,-81.728 -52.932,-118.283l-15.404,-18.021c66.325,11.333 123.663,27.679 174.95,49.851c42.573,18.389 74.482,52.421 97.532,104.028c12.946,28.956 20.416,58.487 22.826,90.3c4.215,55.103 11.924,110.765 19.363,164.591c2.267,16.537 7.71,32.053 12.946,47.057l1.468,4.231c15.117,43.45 44.137,78.583 86.278,104.443c50.681,31.063 106.886,46.212 171.63,46.212c1.772,-0 3.528,-0.016 5.299,-0.048Z" style="fill:#fff;"/><path d="M851.972,506.271c3.991,-1.181 8.013,-2.362 12.02,-3.544c-31.43,29.946 -66.293,52.438 -103.789,66.98c-73.412,28.493 -147.191,35.213 -219.278,19.985c-85.416,-18.054 -143.216,-71.481 -171.821,-158.732c-11.621,-35.405 -16.458,-75.088 -14.798,-121.316c2.602,-71.959 -18.5,-138.156 -62.669,-196.787c-6.161,-8.157 -12.131,-16.425 -18.133,-24.71l-3.129,-4.31c4.725,0.511 9.258,0.99 13.712,1.963c65.351,14.079 128.02,39.699 191.631,78.377c42.652,25.939 61.983,70.028 74.05,105.529c10.424,30.632 17.16,64.808 20.608,104.459c1.932,21.757 5.699,45.365 11.541,72.167c6.13,28.301 22.779,49.516 49.516,63.1c46.323,23.529 96.334,28.557 152.858,15.372c22.81,-5.332 45.605,-12.052 67.681,-18.533Z" style="fill:#fff;"/><path d="M1217.38,257.344c8.396,-0.223 16.585,-0.335 24.598,-0.335c56.412,-0 103.981,5.635 148.117,17.447c85.671,22.954 142.706,68.288 174.36,138.619c33.665,74.865 42.428,156.769 26.035,243.478c-12.02,63.69 -38.247,124.173 -63.643,182.644l-3.815,8.843c4.693,-30.137 5.427,-62.733 2.298,-102.113c-5.395,-68.032 -26.146,-125.322 -63.387,-175.173c-30.185,-40.338 -68.56,-66.501 -114.005,-77.754l-4.565,-1.133c-15.66,-3.911 -31.862,-7.934 -48.207,-8.668l-1.66,-0.08c-54.928,-2.49 -111.531,-5.076 -167.719,-4.166c-32.149,0.207 -63.164,-4.31 -93.813,-14.734c-54.512,-18.564 -92.056,-47.76 -114.723,-89.278c-27.344,-50.043 -49.308,-106.774 -67.011,-173.131l19.922,14.111c40.05,28.414 80.882,42.365 124.923,42.636c20.576,0.144 41.135,0.016 61.711,-0.096l10.232,-0.063c49.58,-0.224 99.99,0.287 150.352,-1.054Z" style="fill:#fff;"/><path d="M1181.67,508.811c19.459,-2.49 37.88,-3.767 55.407,-3.767c24.598,0 47.488,2.474 69.102,7.423c91.226,20.863 150.846,74.545 177.169,159.546c22.22,71.704 22.299,147.223 0.255,224.45c-11.302,39.507 -30.936,77.067 -58.519,111.882c0.878,-4.422 1.74,-8.86 2.618,-13.281c4.501,-22.875 9.147,-46.531 12.435,-70.044c8.077,-58.519 -1.692,-108.753 -29.898,-153.56c-16.266,-25.828 -39.332,-40.737 -68.575,-44.312c-27.153,-3.321 -50.937,-4.949 -72.63,-4.949c-1.517,0 -2.985,0.032 -4.534,0.016c-39.411,0 -73.811,-3.655 -105.065,-11.158c-37.161,-8.923 -83.724,-24.438 -114.053,-65.303c-45.174,-60.881 -77.084,-122.114 -97.5,-187.129c-1.372,-4.406 -2.33,-9.051 -3.304,-13.951l3.911,2.298c9.258,5.507 18.532,10.998 27.711,16.681c63.611,39.332 132.825,54.544 205.47,45.158Z" style="fill:#fff;"/><path d="M2238.11,701.186l19.873,-23.673c-0.16,81.426 -8.173,153.018 -24.407,218.465c-13.392,53.969 -47.329,98.361 -103.709,135.714c-31.654,20.974 -65.047,35.58 -102.081,44.679c-63.499,15.595 -126.998,35.389 -188.422,54.528l-2.059,0.655c-18.325,5.714 -35.565,15.164 -52.262,24.295l-4.453,2.442c-47.92,26.147 -83.421,67.043 -105.529,121.507c-27.312,67.314 -33.745,138.188 -19.65,216.74c8.572,47.776 19.73,85.815 35.102,119.688c0.191,0.399 0.383,0.83 0.543,1.245l-11.126,-14.191c-46.164,-58.71 -93.86,-119.416 -126.472,-188.039c-44.392,-93.461 -58.854,-188.997 -42.971,-283.943c14.957,-89.327 66.181,-157.806 156.593,-209.381c53.139,-30.313 113.733,-52.82 190.673,-70.826c40.497,-9.482 81.409,-20.209 120.948,-30.601c16.538,-4.325 33.059,-8.651 49.596,-12.913l12.818,-3.289c22.907,-5.89 45.861,-11.78 68.687,-17.942c49.628,-13.376 91.61,-41.231 128.308,-85.16Z" style="fill:#fff;"/><path d="M2218.13,986.159l5.124,-5.204l0.096,1.261c0.351,6.082 0.703,11.828 0.431,17.463c-3.783,79.781 -21.693,158.652 -54.768,241.147c-22.315,55.534 -70.554,87.044 -110.11,108.274c-34,18.245 -72.933,32.915 -119.08,44.807c-25.078,6.497 -52.102,15.532 -82.559,27.663c-31.813,12.659 -53.347,36.22 -63.994,70.044c-18.565,58.918 -14.686,118.523 11.844,182.197c10.743,25.828 23.13,51.4 35.134,76.142c2.682,5.587 5.395,11.158 8.077,16.745c-42.923,-31.702 -77.307,-69.15 -102.448,-111.563c-48,-80.994 -70.411,-166.665 -66.596,-254.635c4.549,-104.427 56.252,-183.187 153.624,-234.076c39.539,-20.655 85.368,-34.128 140.152,-41.247c84.953,-11.014 158.556,-48.686 218.735,-112.01c8.668,-9.114 17.511,-18.069 26.338,-27.008Z" style="fill:#fff;"/></g></g><g><path d="M1215.97,1190.58c-5.808,8.744 -11.081,18.162 -15.817,28.248c-3.392,7.231 -7.565,11.359 -15.668,11.855c-11.471,0.7 -22.917,1.82 -34.344,3.039c-7.633,0.818 -11.786,-2.048 -15.205,-9.284c-8.293,-17.587 -17.092,-35.02 -27.013,-51.734c-14.121,-23.802 -31.862,-44.732 -54.792,-60.72c-32.3,-22.534 -68.323,-30.26 -107.162,-26.476c-4.32,0.419 -8.654,0.785 -13.24,1.212c-7.2,-15.798 -10.543,-31.831 -12.678,-48.005c-13.483,-101.944 40.789,-198.768 135.092,-238.714c139.611,-59.131 290.495,29.466 312.831,172.024c6.888,43.97 1.596,86.405 -16.133,127.33c-3.07,7.094 -7.082,10.672 -15.222,12.293c-52.5,10.472 -92.754,36.94 -120.649,78.932Z" style="fill:url(#_Linear1);"/><g><path d="M1220.24,1083.68c-5.051,5.126 -11.775,9.854 -18.589,11.781c-19.074,5.36 -38.492,9.569 -57.93,13.475c-18.212,3.652 -18.28,3.225 -17.401,21.809c0.036,0.805 -0.526,1.64 -0.818,2.464c-10.009,3.356 -17.054,1.294 -21.22,-6.209c-4.469,-8.041 -3.472,-18.874 4.136,-23.926c7.181,-4.774 15.624,-8.016 23.919,-10.63c12.597,-3.967 25.598,-6.628 38.331,-10.219c4.618,-1.301 9.242,-3.163 13.341,-5.64c7.892,-4.778 7.501,-10.182 -0.824,-14.54c-3.499,-1.832 -7.312,-3.064 -12.177,-5.059l-0,-20.749c18.23,3.244 35.341,6.258 48.583,19.103c8.722,8.462 9.179,19.692 0.649,28.34Z" style="fill:#9a0004;"/><path d="M1051.47,909.643c-2.062,-0.334 -3.54,-2.946 -4.093,-4.432c-0.266,-0.718 -0.061,-1.528 0.627,-2.47c0.364,-0.514 1.503,-2.185 3.17,-2.105c1.273,0.038 2.382,0.638 3.781,1.405c0.607,0.336 1.294,0.711 2.111,1.103l2.209,1.064l-1.906,1.536c-0.768,0.625 -1.423,1.238 -1.993,1.782c-1.264,1.189 -2.278,2.147 -3.517,2.147c-0.129,0 -0.26,-0.011 -0.389,-0.03Z" style="fill:#fff;"/><path d="M1191.89,1161.46c-7.458,-3.814 -14.776,-7.967 -21.74,-12.61c-2.062,-1.374 -2.749,-4.799 -4.074,-7.287c2.619,-1.206 5.281,-3.51 7.851,-3.417c8.821,0.317 22.786,12.215 28.158,24.626c-4.561,-0.521 -7.8,-0.093 -10.195,-1.312Z" style="fill:#9a0004;"/><path d="M1195.19,946.125c8.593,-1.392 17.384,-3.943 25.102,-7.891c18.113,-9.25 19.049,-28.712 2.472,-40.479c-10.401,-7.373 -22.64,-9.651 -34.914,-11.633c-2.168,-0.347 -4.334,-0.687 -6.855,-1.095c-4.085,-7.974 -2.135,-16.084 -1.936,-25.313c30.969,1.462 58.877,7.863 81.775,28.314c24.235,21.649 22.452,43.532 -4.804,61.787c-19.457,13.025 -41.446,19.889 -64.226,23.697c-17.394,2.908 -35.205,3.299 -52.592,6.226c-12.029,2.026 -24.255,5.127 -35.305,10.148c-13.847,6.3 -13.959,15.871 -1.832,25.157c2.445,1.876 5.125,3.48 7.806,4.996c13.663,7.743 13.674,7.718 10.258,26.532c-17.272,-1.857 -33.044,-5.925 -47.146,-14.71c-23.709,-14.77 -24.081,-41.753 -0.934,-57.656c14.54,-9.998 31.341,-14.417 48.378,-17.234c24.834,-4.11 49.906,-6.797 74.753,-10.846Z" style="fill:#9a0004;"/><path d="M1071.68,876.973c13.959,-1.344 27.795,-3.975 42.385,-6.122c3.255,16.993 3.381,17.204 -7.663,24.111c-23.246,14.548 -46.992,28.147 -74.731,32.127c-9.521,1.363 -19.443,0.967 -24.65,11.441c-0.241,0.476 -2.272,0.063 -4.184,0.063c16.057,-28.91 30.827,-57.968 68.843,-61.62Zm-20.214,32.67c0.129,0.019 0.26,0.03 0.389,0.03c1.239,0 2.253,-0.958 3.517,-2.147c0.57,-0.544 1.225,-1.157 1.993,-1.782l1.906,-1.536l-2.209,-1.064c-0.817,-0.392 -1.504,-0.767 -2.111,-1.103c-1.399,-0.767 -2.508,-1.367 -3.781,-1.405c-1.667,-0.08 -2.806,1.591 -3.17,2.105c-0.688,0.942 -0.893,1.752 -0.627,2.47c0.553,1.486 2.031,4.098 4.093,4.432Z" style="fill:#9a0004;"/><path d="M1134.73,792.512c11.594,-5.232 23.226,-5.163 34.339,1.577c7.737,4.706 9.42,9.324 6.877,17.872c-0.632,2.111 -1.158,4.421 -2.409,6.167c-9.094,12.671 -9.453,27.175 -9.391,41.915c0.08,18.602 -0.087,37.21 -0.47,55.811c-0.162,7.887 -1.12,15.766 -1.802,24.675c-8.733,1.765 -15.624,3.25 -22.55,4.5c-2.075,0.367 -4.273,0.057 -8.197,0.057c0,-6.488 0.154,-12.573 -0.025,-18.651c-0.842,-28.335 -1.535,-56.668 -2.836,-84.976c-0.413,-9.187 -2.247,-18.355 -3.955,-27.423c-2.037,-10.754 0.525,-17.048 10.419,-21.524Z" style="fill:#9a0004;"/><path d="M1131.42,989.594c10.289,-0.972 18.09,-1.695 27.35,-2.568c0.651,5.639 1.664,10.69 1.757,15.755c0.391,20.736 0.589,41.468 0.695,62.206c0.074,14.107 -3.485,17.655 -17.779,18.001c-3.003,0.062 -6.011,-0.587 -10.419,-1.065c-2.042,-30.523 -1.541,-60.69 -1.604,-92.329Z" style="fill:#9a0004;"/><path d="M1158.06,1213.61c-0.947,6.803 -6.166,11.136 -12.747,10.491c-6.239,-0.611 -9.426,-4.197 -9.458,-10.516c-0.025,-3.969 -0.08,-7.931 -0.105,-11.906c-0.156,-23.813 -0.347,-47.633 -0.421,-71.443c-0.012,-3.887 0.52,-7.775 0.911,-13.179c7.118,-0.52 12.714,-0.928 19.493,-1.429c0.618,4.525 1.511,8.259 1.571,11.996c0.408,26.465 0.651,52.923 0.929,79.385c0.026,2.204 0.125,4.433 -0.173,6.601Z" style="fill:#9a0004;"/></g><g><g><path d="M860.078,1390.19c-17.228,-52.996 -33.912,-106.184 -56.252,-157.333c-12.796,-29.301 -27.845,-57.349 -49.38,-81.367c-18.758,-20.91 -40.857,-36.666 -69.08,-41.897c-40.416,-7.477 -79.873,-1.156 -119.139,9.559c21.926,7.701 38.213,22.025 50.62,40.157c12.454,18.192 24.24,37.08 34.04,56.796c24.897,50.087 41.835,103.225 56.016,157.186c13.823,52.618 27.936,105.1 47.492,155.961c18.777,48.81 39.223,96.871 69.023,140.137c10.208,14.819 22.558,28.371 35.211,41.239c11.929,12.127 27.585,16.951 44.701,17.209c38.189,0.582 60.572,-23.994 83.142,-49.95c-41.55,-53.169 -66.329,-113.245 -88.472,-174.499c-13.526,-37.415 -25.616,-75.357 -37.922,-113.198" style="fill:url(#_Linear2);fill-rule:nonzero;"/></g><g><path d="M1091.03,1564.69c-24.892,-49.503 -44.948,-101.015 -63.414,-153.174c-18.751,-52.952 -36.789,-106.159 -56.085,-158.901c-12.511,-34.183 -28.439,-66.825 -51.931,-95.138c-24.496,-29.542 -54.661,-50.248 -92.775,-57.831c-30.352,-6.037 -60.783,-4.655 -91.122,0.389c-6.173,1.029 -12.251,2.576 -18.374,3.882c15.328,8.747 28.545,18.64 38.647,31.552c13.588,17.383 27.101,35.118 38.109,54.159c30.95,53.536 51.923,111.372 69.461,170.447c17.247,58.089 33.936,116.36 56.419,172.724c16.59,41.605 35.211,82.2 61.352,118.866c14.232,19.963 30.65,37.711 51.35,51.361c24.426,16.109 48.378,14.548 72.062,-0.977c17.234,-11.293 30.432,-26.75 43.79,-43.507c-1.95,-3.015 -3.039,-4.926 -4.358,-6.661c-20.687,-27.249 -37.792,-56.671 -53.131,-87.191" style="fill:url(#_Linear3);fill-rule:nonzero;"/></g><g><path d="M1250.82,1553.84c-29.893,-52.487 -49.517,-109.451 -69.239,-166.335c-18.819,-54.29 -38.281,-108.38 -58.765,-162.063c-10.907,-28.582 -26.205,-55.138 -46.212,-78.649c-20.755,-24.403 -46.21,-40.566 -78.178,-46.502c-39.196,-7.274 -77.447,-2.513 -116.823,7.126c11.228,9.005 21.702,16.366 30.963,25.026c22.031,20.614 36.642,46.502 49.071,73.542c27.566,59.942 49.511,122.129 70.961,184.398c15.854,46.026 31.664,91.976 51.762,136.337c19.947,44.007 41.619,87.16 71.736,125.231c11.148,14.102 24.439,26.755 38.032,38.596c12.902,11.23 29.181,14.827 46.125,12.424c28.332,-4.003 50.173,-18.893 66.263,-42.199c7.222,-10.467 6.319,-10.431 -0.602,-20.966c-18.707,-28.444 -38.274,-56.432 -55.094,-85.966" style="fill:url(#_Linear4);fill-rule:nonzero;"/></g><g><path d="M1656.34,1101.96c-23.567,15.402 -49.153,24.125 -77.584,23.196c-15.024,-0.484 -30.049,-1.19 -45.065,-1.845c-31.399,-1.38 -62.822,-2.266 -94.169,-4.333c-36.871,-2.434 -73.474,-1.585 -109.582,6.587c-50.365,11.402 -91.14,36.838 -114.731,84.263c-24.174,48.587 -30.488,100.581 -22.57,153.824c6.814,45.777 24.79,88.435 41.295,131.371c0.403,1.073 1.591,1.851 3.355,3.795c-0.242,-4.666 -0.179,-8.085 -0.619,-11.439c-2.891,-22.112 -1.912,-44.151 0.7,-66.206c4.704,-39.551 18.05,-75.467 43.363,-106.704c18.819,-23.219 42.237,-38.832 71.597,-44.893c10.797,-2.234 21.803,-4.728 32.729,-4.797c35.379,-0.235 70.824,-0.482 106.121,1.454c20.801,1.153 40.641,-1.243 60.196,-7.055c31.484,-9.374 58.634,-25.723 75.862,-54.538c21.401,-35.798 36.778,-74.432 48.961,-115.58c-6.625,4.296 -13.248,8.586 -19.859,12.9" style="fill:url(#_Linear5);fill-rule:nonzero;"/></g><g><path d="M1607.19,1241.9c-7.744,4.202 -15.531,8.35 -23.202,12.697c-39.965,22.613 -82.437,30.605 -127.911,22.947c-26.303,-4.427 -52.791,-5.702 -79.212,-0.731c-57.224,10.754 -97.777,42.367 -117.294,97.684c-16.437,46.577 -17.401,94.539 -5.72,142.44c7.398,30.345 21.864,57.533 41.691,82.073c-3.102,-21.37 -6.989,-42.658 -9.117,-64.12c-3.313,-33.478 2.456,-65.074 21.956,-93.519c10.275,-14.986 24.174,-23.325 41.81,-24.798c15.376,-1.276 30.92,-1.938 46.317,-1.268c23.114,1.002 46.075,0.091 68.669,-4.421c28.637,-5.714 55.874,-15.594 74.885,-39.234c28.147,-35.018 50.984,-73.307 66.168,-115.829c1.573,-4.389 2.447,-9.024 3.752,-13.952c-1.943,0 -2.458,-0.15 -2.792,0.031" style="fill:url(#_Linear6);fill-rule:nonzero;"/></g></g></g><defs><linearGradient id="_Linear1" x1="0" y1="0" x2="1" y2="0" gradientUnits="userSpaceOnUse" gradientTransform="matrix(18.8387,450.966,-450.53,18.8204,1144.45,781.417)"><stop offset="0" style="stop-color:#c75e5d;stop-opacity:0.85"/><stop offset="0.58" style="stop-color:#e2aba9;stop-opacity:0.95"/><stop offset="1" style="stop-color:#eecfcd;stop-opacity:1"/></linearGradient><linearGradient id="_Linear2" x1="0" y1="0" x2="1" y2="0" gradientUnits="userSpaceOnUse" gradientTransform="matrix(3.91145e-14,638.789,-638.789,3.91145e-14,1097.34,1089.06)"><stop offset="0" style="stop-color:#c75f5e;stop-opacity:1"/><stop offset="1" style="stop-color:#b5191c;stop-opacity:1"/></linearGradient><linearGradient id="_Linear3" x1="0" y1="0" x2="1" y2="0" gradientUnits="userSpaceOnUse" gradientTransform="matrix(3.91145e-14,638.789,-638.789,3.91145e-14,1097.34,1089.06)"><stop offset="0" style="stop-color:#c75f5e;stop-opacity:1"/><stop offset="1" style="stop-color:#b5191c;stop-opacity:1"/></linearGradient><linearGradient id="_Linear4" x1="0" y1="0" x2="1" y2="0" gradientUnits="userSpaceOnUse" gradientTransform="matrix(3.91145e-14,638.789,-638.789,3.91145e-14,1097.34,1089.06)"><stop offset="0" style="stop-color:#c75f5e;stop-opacity:1"/><stop offset="1" style="stop-color:#b5191c;stop-opacity:1"/></linearGradient><linearGradient id="_Linear5" x1="0" y1="0" x2="1" y2="0" gradientUnits="userSpaceOnUse" gradientTransform="matrix(3.91145e-14,638.789,-638.789,3.91145e-14,1097.34,1089.06)"><stop offset="0" style="stop-color:#c75f5e;stop-opacity:1"/><stop offset="1" style="stop-color:#b5191c;stop-opacity:1"/></linearGradient><linearGradient id="_Linear6" x1="0" y1="0" x2="1" y2="0" gradientUnits="userSpaceOnUse" gradientTransform="matrix(3.91145e-14,638.789,-638.789,3.91145e-14,1097.34,1089.06)"><stop offset="0" style="stop-color:#c75f5e;stop-opacity:1"/><stop offset="1" style="stop-color:#b5191c;stop-opacity:1"/></linearGradient></defs></svg>